<svg width="32" height="31" viewBox="0 0 32 31" fill="none" xmlns="http://www.w3.org/2000/svg">
<path d="M31.7617 15.3257C31.7617 7.04056 24.823 0.325684 16.2617 0.325684C7.70042 0.325684 0.761719 7.04056 0.761719 15.3257C0.761719 22.814 6.42891 29.0191 13.8398 30.1441V19.6616H9.90426V15.3257H13.8398V12.021C13.8398 8.26218 16.1528 6.18506 19.6947 6.18506C21.39 6.18506 23.1641 6.47803 23.1641 6.47803V10.1694H21.2084C19.283 10.1694 18.6836 11.3267 18.6836 12.5132V15.3257H22.9824L22.2952 19.6616H18.6836V30.1441C26.0945 29.0191 31.7617 22.814 31.7617 15.3257Z" fill="#1877F2"/>
<path d="M22.2933 19.6616L22.9805 15.3257H18.6817V12.5132C18.6817 11.3267 19.2811 10.1694 21.2065 10.1694H23.1621V6.47803C23.1621 6.47803 21.3881 6.18506 19.6928 6.18506C16.1508 6.18506 13.8379 8.26218 13.8379 12.021V15.3257H9.90234V19.6616H13.8379V30.1441C14.628 30.2642 15.4364 30.3257 16.2598 30.3257C17.0832 30.3257 17.8916 30.2642 18.6817 30.1441V19.6616H22.2933Z" fill="white"/>
</svg>
