<svg width="26" height="25" viewBox="0 0 26 25" fill="none" xmlns="http://www.w3.org/2000/svg">
<path d="M13.0616 24.9297C12.9702 24.9297 12.8788 24.884 12.7873 24.8383C6.79875 20.3583 3.64446 16.1525 2.04446 13.364C1.17589 11.8554 0.71875 10.0725 0.71875 8.28968V8.19826C0.71875 4.1754 3.96446 0.929688 7.98732 0.929688C9.90732 0.929688 11.7359 1.70682 13.1073 3.03253C14.4787 1.70682 16.3073 0.929688 18.2273 0.929688C22.2502 0.929688 25.4959 4.1754 25.4959 8.19826V8.28968C25.4959 10.0725 25.0387 11.8554 24.1702 13.364C22.5702 16.1525 19.4159 20.3583 13.4273 24.8383C13.2445 24.9297 13.153 24.9297 13.0616 24.9297ZM7.94161 1.84397C4.42161 1.84397 1.58732 4.67826 1.58732 8.19826V8.33539C1.58732 9.98111 1.99875 11.5811 2.82161 12.9525C4.33018 15.604 7.34732 19.6268 13.0616 23.924C18.7302 19.6268 21.7473 15.604 23.3016 12.9525C24.1245 11.5811 24.5359 9.98111 24.5359 8.33539V8.19826C24.5359 4.67826 21.7016 1.84397 18.1816 1.84397C16.353 1.84397 14.6159 2.62111 13.4273 3.99254C13.2445 4.17539 12.9245 4.17539 12.7416 3.99254C11.5073 2.62111 9.77018 1.84397 7.94161 1.84397Z" fill="#231F20"/>
</svg>
