<svg width="13" height="17" viewBox="0 0 13 17" fill="none" xmlns="http://www.w3.org/2000/svg">
<g id="icon key" clip-path="url(#clip0_608_31304)">
<g id="Group">
<path id="Vector" d="M11.0677 9.68656H9.8053V5.391C9.8053 3.51609 8.3229 1.99085 6.50066 1.99085C4.67841 1.99085 3.19602 3.51609 3.19602 5.391V9.68656H1.93359V5.391C1.93331 2.79987 3.98203 0.69165 6.50037 0.69165C9.01872 0.69165 11.0677 2.79987 11.0677 5.391V9.68656Z" fill="#72716F"/>
<path id="Vector_2" d="M12.5103 7.64819H0.489702C0.219247 7.64819 0 7.87378 0 8.15205V16.1878C0 16.4661 0.219247 16.6917 0.489702 16.6917H12.5103C12.7808 16.6917 13 16.4661 13 16.1878V8.15205C13 7.87378 12.7808 7.64819 12.5103 7.64819Z" fill="#F2CB30"/>
</g>
<path id="Vector_3" d="M13.0002 16.1878V11.2639C9.03986 14.7115 3.32968 16.0069 0.09375 16.4822C0.182812 16.6088 0.326443 16.6917 0.489583 16.6917H12.5105C12.7808 16.6917 12.9999 16.4662 12.9999 16.1881L13.0002 16.1878Z" fill="#EAB531"/>
<path id="Vector_4" d="M7.57459 10.8081C7.57459 10.1978 7.09365 9.70264 6.50018 9.70264C5.90672 9.70264 5.42578 10.1975 5.42578 10.8081C5.42578 11.172 5.5974 11.4938 5.8612 11.6954L5.51937 14.1949H7.48072L7.13889 11.6954C7.40268 11.4941 7.57431 11.172 7.57431 10.8081H7.57459Z" fill="#58595A"/>
<path id="Vector_5" d="M0.410156 8.60115V10.3318C0.454546 9.59693 0.798355 7.9978 2.94801 7.9978H0.996554C0.673951 7.9978 0.410156 8.26922 0.410156 8.60115Z" fill="#F7DB5E"/>
<path id="Vector_6" d="M5.51953 14.1946C5.51953 14.1946 6.97535 13.7713 7.13905 11.6951L7.48088 14.1946H5.51953Z" fill="#3E3D40"/>
</g>
<defs>
<clipPath id="clip0_608_31304">
<rect width="13" height="16" fill="white" transform="translate(0 0.69165)"/>
</clipPath>
</defs>
</svg>
