<svg width="32" height="32" viewBox="0 0 32 32" fill="none" xmlns="http://www.w3.org/2000/svg">
<path fill-rule="evenodd" clip-rule="evenodd" d="M16 25.3686C21.5228 25.3686 26 21.0328 26 15.6843C26 10.3358 21.5228 6 16 6C10.4772 6 6 10.3358 6 15.6843C6 18.5932 7.32437 21.2026 9.42105 22.9778V24.9375C9.42105 25.7035 10.2012 26.2172 10.8968 25.9093L13.0715 24.9467C13.9977 25.221 14.9811 25.3686 16 25.3686Z" fill="url(#paint0_linear_356_4072)"/>
<path d="M13.6054 13.6256L10.7056 17.5915C10.3946 18.0167 10.9538 18.5275 11.3795 18.2072L13.8556 16.3437C14.1076 16.1541 14.4609 16.1515 14.7159 16.3375L16.9181 17.944C17.3404 18.2521 17.944 18.1635 18.2515 17.7483L21.2927 13.6416C21.6081 13.2157 21.0446 12.7007 20.6183 13.0253L18.0005 15.0182C17.7484 15.2101 17.3932 15.2136 17.1371 15.0267L14.942 13.4255C14.518 13.1161 13.9116 13.2069 13.6054 13.6256Z" fill="white"/>
<defs>
<linearGradient id="paint0_linear_356_4072" x1="16" y1="6" x2="12.7913" y2="25.891" gradientUnits="userSpaceOnUse">
<stop stop-color="#00B1FF"/>
<stop offset="1" stop-color="#006BFF"/>
</linearGradient>
</defs>
</svg>
