<svg width="29" height="25" viewBox="0 0 29 25" fill="none" xmlns="http://www.w3.org/2000/svg">
<path d="M17.6128 1.05285C16.9772 0.759484 16.2926 0.80838 15.7059 1.19953L7.93177 6.92014H2.40673C1.42885 6.92014 0.597656 7.75134 0.597656 8.72922V16.9434C0.597656 17.9213 1.42885 18.7525 2.40673 18.7525H7.88287L15.7059 24.522C16.0482 24.7665 16.3904 24.8643 16.7816 24.8643C17.0749 24.8643 17.3194 24.8154 17.6128 24.6687C18.1995 24.3753 18.5907 23.7397 18.5907 23.0552V2.66635C18.5907 1.98184 18.2484 1.34621 17.6128 1.05285ZM1.62443 16.9434V8.72922C1.62443 8.28917 2.01558 7.89802 2.45562 7.89802H7.6384V17.7746H2.40673C1.96669 17.7746 1.62443 17.3835 1.62443 16.9434ZM17.6128 23.0552C17.6128 23.3974 17.4661 23.6419 17.1727 23.7886C16.8794 23.9353 16.586 23.8864 16.2926 23.7397L8.61628 18.068V7.65355L16.2926 1.98184C16.5371 1.78626 16.8794 1.78626 17.1727 1.93294C17.4661 2.07963 17.6128 2.37299 17.6128 2.66635V23.0552Z" fill="white"/>
<path d="M20.1569 15.3788C19.8635 15.3788 19.668 15.5744 19.668 15.8677C19.668 16.1611 19.8635 16.3567 20.1569 16.3567C22.1127 16.3567 23.6773 14.7921 23.6773 12.8363C23.6773 10.8805 22.1127 9.31592 20.1569 9.31592C19.8635 9.31592 19.668 9.51149 19.668 9.80486C19.668 10.0982 19.8635 10.2938 20.1569 10.2938C21.5748 10.2938 22.6994 11.4184 22.6994 12.8363C22.6994 14.2542 21.5748 15.3788 20.1569 15.3788Z" fill="white"/>
<path d="M20.1569 18.8014C23.4328 18.8014 26.122 16.1122 26.122 12.8363C26.122 9.56039 23.4328 6.87122 20.1569 6.87122C19.8635 6.87122 19.668 7.06679 19.668 7.36016C19.668 7.65352 19.8635 7.8491 20.1569 7.8491C22.895 7.8491 25.1441 10.0982 25.1441 12.8363C25.1441 15.5744 22.895 17.8235 20.1569 17.8235C19.8635 17.8235 19.668 18.0191 19.668 18.3124C19.668 18.6058 19.9124 18.8014 20.1569 18.8014Z" fill="white"/>
<path d="M20.1569 4.62207C19.8635 4.62207 19.668 4.81765 19.668 5.11101C19.668 5.40438 19.8635 5.59995 20.1569 5.59995C24.1662 5.59995 27.4421 8.87585 27.4421 12.8852C27.4421 16.8945 24.1662 20.1704 20.1569 20.1704C19.8635 20.1704 19.668 20.366 19.668 20.6593C19.668 20.9527 19.8635 21.1483 20.1569 21.1483C24.7041 21.1483 28.42 17.4323 28.42 12.8852C28.42 8.28913 24.7041 4.62207 20.1569 4.62207Z" fill="white"/>
</svg>
