<svg width="26" height="25" viewBox="0 0 26 25" fill="none" xmlns="http://www.w3.org/2000/svg">
<path d="M19.4851 11.1914L4.0085 2.27553C3.39168 1.93908 2.60665 1.93908 1.98982 2.27553C1.373 2.61198 0.980469 3.28488 0.980469 4.01385V21.8456C0.980469 22.5746 1.373 23.2475 1.98982 23.5839C2.32627 23.7522 2.66272 23.8643 2.99916 23.8643C3.33561 23.8643 3.67205 23.7522 4.0085 23.5839L19.4851 14.6681C20.102 14.3316 20.4945 13.6587 20.4945 12.9297C20.4945 12.2008 20.102 11.5279 19.4851 11.1914ZM18.9244 13.6587L3.44775 22.5746C3.16738 22.7428 2.83095 22.7428 2.55057 22.5746C2.2702 22.4064 2.10196 22.126 2.10196 21.7895V4.01385C2.10196 3.6774 2.2702 3.39703 2.55057 3.2288C2.66272 3.17273 2.83094 3.11665 2.99916 3.11665C3.16739 3.11665 3.27953 3.17273 3.44775 3.2288L18.9244 12.1447C19.2048 12.3129 19.373 12.5933 19.373 12.9297C19.373 13.2101 19.2048 13.5466 18.9244 13.6587Z" fill="white"/>
<path d="M24.4206 0.929688H22.4579C21.6729 0.929688 21 1.60258 21 2.38763V23.4717C21 24.2568 21.6729 24.9297 22.4579 24.9297H24.4206C25.2056 24.9297 25.8785 24.2568 25.8785 23.4717V2.38763C25.8785 1.60258 25.2056 0.929688 24.4206 0.929688ZM24.757 23.4717C24.757 23.64 24.5888 23.8082 24.4206 23.8082H22.4579C22.2897 23.8082 22.1215 23.64 22.1215 23.4717V2.38763C22.1215 2.21941 22.2897 2.05118 22.4579 2.05118H24.4206C24.5888 2.05118 24.757 2.21941 24.757 2.38763V23.4717Z" fill="white"/>
</svg>
