<svg width="19" height="25" viewBox="0 0 19 25" fill="none" xmlns="http://www.w3.org/2000/svg">
<path d="M5.49969 24.9297H2.25121C1.13606 24.9297 0.214844 24.0085 0.214844 22.8933V2.96605C0.214844 1.8509 1.13606 0.929688 2.25121 0.929688H5.49969C6.61484 0.929688 7.53606 1.8509 7.53606 2.96605V22.8933C7.58454 24.0085 6.66333 24.9297 5.49969 24.9297ZM2.29969 1.8509C1.71788 1.8509 1.23303 2.33575 1.23303 2.91757V22.8448C1.23303 23.4267 1.71788 23.9115 2.29969 23.9115H5.54818C6.13 23.9115 6.61485 23.4267 6.61485 22.8448V2.91757C6.61485 2.33575 6.13 1.8509 5.54818 1.8509H2.29969Z" fill="white"/>
<path d="M16.8965 24.9297H13.6965C12.5814 24.9297 11.6602 24.0085 11.6602 22.8933V2.96605C11.6602 1.8509 12.5814 0.929688 13.6965 0.929688H16.945C18.0602 0.929688 18.9814 1.8509 18.9814 2.96605V22.8933C18.9329 24.0085 18.0602 24.9297 16.8965 24.9297ZM13.6965 1.8509C13.1147 1.8509 12.6299 2.33575 12.6299 2.91757V22.8448C12.6299 23.4267 13.1147 23.9115 13.6965 23.9115H16.945C17.5268 23.9115 18.0117 23.4267 18.0117 22.8448V2.91757C18.0117 2.33575 17.5268 1.8509 16.945 1.8509H13.6965Z" fill="white"/>
</svg>
