<svg width="67" height="75" viewBox="0 0 67 75" fill="none" xmlns="http://www.w3.org/2000/svg">
<path d="M7.59909 74.8136C6.46148 74.8136 5.32387 74.4344 4.18626 73.8656C2.10065 72.728 0.773438 70.4528 0.773438 67.988V7.69473C0.773438 5.22991 2.10065 2.95468 4.18626 1.81707C6.27188 0.679465 8.9263 0.679465 11.0119 1.81707L63.3419 31.9637C65.4275 33.1013 66.7547 35.3765 66.7547 37.8413C66.7547 40.3062 65.4275 42.5814 63.3419 43.719L11.0119 73.8656C9.8743 74.4344 8.7367 74.8136 7.59909 74.8136ZM7.59909 4.66109C7.03028 4.66109 6.65108 4.85072 6.08228 5.04032C5.13427 5.60912 4.56546 6.55712 4.56546 7.69473V67.988C4.56546 69.1256 5.13427 70.0736 6.08228 70.6424C7.03028 71.2112 8.16789 71.2112 9.1159 70.6424L61.4459 40.4958C62.3939 39.927 62.9627 38.9789 62.9627 37.8413C62.9627 36.7037 62.3939 35.7557 61.4459 35.1869L9.1159 5.04032C8.54709 4.85072 7.97829 4.66109 7.59909 4.66109Z" fill="white"/>
</svg>
