<svg width="26" height="25" viewBox="0 0 26 25" fill="none" xmlns="http://www.w3.org/2000/svg">
<path d="M23.1971 23.8643C22.8606 23.8643 22.5242 23.7522 22.1877 23.5839L6.76716 14.6681C6.15034 14.3316 5.75781 13.6587 5.75781 12.9297C5.75781 12.2008 6.15034 11.5839 6.76716 11.1914L22.1877 2.27553C22.8045 1.93908 23.5896 1.93908 24.2064 2.27553C24.8232 2.61198 25.2158 3.28488 25.2158 4.01385V21.8456C25.2158 22.5746 24.8232 23.2475 24.2064 23.5839C23.926 23.7522 23.5335 23.8643 23.1971 23.8643ZM7.32791 13.6587L22.8045 22.5746C23.0849 22.7428 23.4214 22.7428 23.7017 22.5746C23.9821 22.4064 24.1503 22.126 24.1503 21.7895V4.01385C24.1503 3.6774 23.9821 3.39703 23.7017 3.2288C23.4214 3.06058 23.0849 3.06058 22.8045 3.2288L7.32791 12.1447C7.04753 12.3129 6.87931 12.5933 6.87931 12.9297C6.87931 13.2101 7.04753 13.5466 7.32791 13.6587Z" fill="white"/>
<path d="M3.73697 24.9297H1.77435C0.989304 24.9297 0.316406 24.2568 0.316406 23.4717V2.38763C0.372481 1.60258 0.989304 0.929688 1.77435 0.929688H3.73697C4.52201 0.929688 5.19491 1.60258 5.19491 2.38763V23.4717C5.19491 24.2568 4.57809 24.9297 3.73697 24.9297ZM1.77435 2.05118C1.60613 2.05118 1.49398 2.21941 1.49398 2.38763V23.4717C1.49398 23.64 1.6622 23.8082 1.83043 23.8082H3.79304C3.96127 23.8082 4.12949 23.64 4.12949 23.4717V2.38763C4.07342 2.21941 3.96127 2.05118 3.73697 2.05118H1.77435Z" fill="white"/>
</svg>
