<svg width="16" height="25" viewBox="0 0 16 25" fill="none" xmlns="http://www.w3.org/2000/svg">
<path d="M12.6543 18.2856C11.8859 18.2856 11.208 18.5568 10.6204 18.9636L6.55259 14.8958C6.95937 14.3534 7.18535 13.6755 7.18535 12.9523C7.18535 12.2291 6.95937 11.5511 6.55259 11.0088L10.5752 6.98618C11.1176 7.39296 11.7955 7.61895 12.5187 7.61895C14.3718 7.61895 15.8633 6.12742 15.8633 4.27432C15.8633 2.42121 14.3718 0.929688 12.5187 0.929688C10.6656 0.929688 9.17405 2.42121 9.17405 4.27432C9.17405 5.08788 9.44524 5.81105 9.94242 6.39862L5.96502 10.376C5.37745 9.92403 4.65428 9.60764 3.84072 9.60764C1.98762 9.60764 0.496094 11.0992 0.496094 12.9523C0.496094 14.8054 1.98762 16.2969 3.84072 16.2969C4.65428 16.2969 5.37745 16.0257 5.96502 15.5286L9.98762 19.5511C9.58084 20.0935 9.30965 20.8167 9.30965 21.585C9.30965 23.4382 10.8012 24.9297 12.6543 24.9297C14.5074 24.9297 15.9989 23.4382 15.9989 21.585C15.9989 19.7319 14.5074 18.2856 12.6543 18.2856ZM12.5639 1.87884C13.9198 1.87884 15.0046 2.96359 15.0046 4.31952C15.0046 5.67545 13.9198 6.76019 12.5639 6.76019C11.9763 6.76019 11.4339 6.5342 11.0272 6.21781C11.0272 6.17262 10.982 6.12743 10.9368 6.12743C10.8916 6.08223 10.8464 6.03703 10.756 6.03703C10.3492 5.58505 10.078 4.99749 10.078 4.36472C10.1232 2.96359 11.2079 1.87884 12.5639 1.87884ZM1.44525 12.9523C1.44525 11.5964 2.52999 10.5116 3.88592 10.5116C5.24186 10.5116 6.3266 11.5964 6.3266 12.9523C6.3266 14.3082 5.24186 15.393 3.88592 15.393C2.52999 15.393 1.44525 14.3082 1.44525 12.9523ZM12.6543 24.0257C11.2983 24.0257 10.2136 22.941 10.2136 21.585C10.2136 20.2291 11.2983 19.1444 12.6543 19.1444C14.0102 19.1444 15.095 20.2291 15.095 21.585C15.095 22.941 14.0102 24.0257 12.6543 24.0257Z" fill="#231F20"/>
</svg>
