<svg width="26" height="26" viewBox="0 0 26 26" fill="none" xmlns="http://www.w3.org/2000/svg">
<path d="M13 25C19.6274 25 25 19.6274 25 13C25 6.37258 19.6274 1 13 1C6.37258 1 1 6.37258 1 13C1 19.6274 6.37258 25 13 25Z" stroke="black" stroke-width="2"/>
<path d="M13.0004 5.80005V20.2M16.6004 10C16.6004 8.34405 14.9888 7.00005 13.0004 7.00005C11.012 7.00005 9.40039 8.34405 9.40039 10C9.40039 11.656 11.012 13 13.0004 13C14.9888 13 16.6004 14.344 16.6004 16C16.6004 17.656 14.9888 19 13.0004 19C11.012 19 9.40039 17.656 9.40039 16" stroke="black" stroke-width="2" stroke-linecap="round"/>
</svg>
