<svg width="101" height="94" viewBox="0 0 101 94" fill="none" xmlns="http://www.w3.org/2000/svg">
<path d="M66.7782 1.62683C64.3134 0.489217 61.659 0.678824 59.3838 2.19564L29.2371 24.379H7.81215C4.02012 24.379 0.796875 27.6022 0.796875 31.3943V63.2473C0.796875 67.0393 4.02012 70.2625 7.81215 70.2625H29.0475L59.3838 92.6355C60.711 93.5835 62.0381 93.9627 63.5549 93.9627C64.6926 93.9627 65.6406 93.7731 66.7782 93.2043C69.0534 92.0667 70.5702 89.6019 70.5702 86.9475V7.88368C70.5702 5.22926 69.0534 2.76443 66.7782 1.62683ZM4.5889 63.2473V31.3943C4.5889 29.6878 6.10574 28.171 7.81215 28.171H28.0995V66.4705H7.81215C6.10574 66.4705 4.5889 64.9537 4.5889 63.2473ZM66.7782 86.9475C66.7782 88.2747 66.2094 89.2227 65.0718 89.7915C63.9342 90.3603 62.7965 90.1707 61.6589 89.6019L31.8915 67.6081V27.223L61.6589 5.22925C62.6069 4.47085 63.9342 4.47085 65.0718 5.03966C66.2094 5.60846 66.7782 6.74607 66.7782 7.88368V86.9475Z" fill="white"/>
<path d="M92.9419 47.3206L100.147 40.1158C100.905 39.3574 100.905 38.2198 100.147 37.4614C99.3884 36.703 98.2507 36.703 97.4923 37.4614L90.2875 44.6662L83.0826 37.4614C82.3242 36.703 81.1866 36.703 80.4282 37.4614C79.6698 38.2198 79.6698 39.3574 80.4282 40.1158L87.6331 47.3206L80.4282 54.5255C79.6698 55.2839 79.6698 56.4215 80.4282 57.1799C80.8074 57.5591 81.3762 57.7487 81.7554 57.7487C82.1346 57.7487 82.7034 57.5591 83.0826 57.1799L90.2875 49.9751L97.4923 57.1799C97.8715 57.5591 98.4403 57.7487 98.8195 57.7487C99.1987 57.7487 99.7676 57.5591 100.147 57.1799C100.905 56.4215 100.905 55.2839 100.147 54.5255L92.9419 47.3206Z" fill="white"/>
</svg>
