<svg width="8" height="344" viewBox="0 0 8 344" fill="none" xmlns="http://www.w3.org/2000/svg">
<path d="M5.17995 219.041C5.17995 219.464 4.91959 219.829 4.5516 219.982C4.54466 226.919 4.54466 233.728 4.5516 240.696C4.91959 240.849 5.17995 241.214 5.17995 241.637C5.17995 242.203 4.72171 242.658 4.15931 242.658C3.59692 242.658 3.13867 242.2 3.13867 241.637C3.13867 241.214 3.39556 240.849 3.76355 240.696C3.75661 233.724 3.75661 226.919 3.76355 219.982C3.39556 219.825 3.13867 219.464 3.13867 219.041C3.13867 218.475 3.59692 218.02 4.15931 218.02C4.72171 218.02 5.17995 218.478 5.17995 219.041Z" fill="url(#paint0_radial_163_2589)"/>
<path d="M4.15903 242.661C3.39529 242.661 2.77388 243.283 2.77388 244.047C2.77388 244.46 2.96481 244.821 3.24948 245.075C1.63867 245.484 0.4375 246.936 0.4375 248.672C0.4375 250.408 1.68727 251.929 3.35015 252.3C3.00646 252.554 2.7704 252.939 2.7704 253.397C2.7704 254.022 3.19046 254.529 3.75979 254.703V254.863C3.39181 255.019 3.13491 255.38 3.13491 255.803C3.13491 256.227 3.39181 256.588 3.75979 256.744C3.75632 263.633 3.75632 270.567 3.75979 277.463C3.39181 277.619 3.13491 277.98 3.13491 278.404C3.13491 278.97 3.59316 279.424 4.15556 279.424C4.71795 279.424 5.1762 278.966 5.1762 278.404C5.1762 277.98 4.91931 277.615 4.55132 277.463C4.54438 270.571 4.54438 263.637 4.55132 256.748C4.91931 256.595 5.17967 256.231 5.17967 255.807C5.17967 255.383 4.91931 255.019 4.55132 254.866C4.55132 254.814 4.55132 254.758 4.55132 254.706C5.12066 254.533 5.54418 254.026 5.54418 253.401C5.54418 252.942 5.30812 252.557 4.96444 252.304C6.62732 251.932 7.87709 250.449 7.87709 248.675C7.87709 246.901 6.67591 245.488 5.0651 245.078C5.35324 244.825 5.54071 244.463 5.54071 244.05C5.54071 243.283 4.9193 242.665 4.15556 242.665L4.15903 242.661ZM4.15903 245.515C5.89829 245.515 7.31469 246.932 7.31469 248.672C7.31469 250.3 6.06839 251.63 4.48188 251.797C4.41245 251.689 4.29442 251.616 4.15903 251.616C4.02017 251.616 3.90561 251.689 3.83618 251.797C2.24967 251.633 1.00337 250.304 1.00337 248.672C1.00337 246.932 2.41978 245.515 4.15903 245.515Z" fill="url(#paint1_radial_163_2589)"/>
<path d="M4.15903 279.432C3.39529 279.432 2.77388 280.053 2.77388 280.817C2.77388 281.23 2.96481 281.591 3.24948 281.845C1.63867 282.254 0.4375 283.706 0.4375 285.442C0.4375 287.178 1.68727 288.699 3.35015 289.07C3.00646 289.324 2.7704 289.709 2.7704 290.168C2.7704 290.793 3.19045 291.299 3.75979 291.473C3.75979 291.525 3.75979 291.581 3.75979 291.633C3.39181 291.789 3.13491 292.15 3.13491 292.574C3.13491 292.997 3.39182 293.358 3.75634 293.515C3.74939 300.511 3.75287 306.9 3.75634 314.233C3.38835 314.389 3.13144 314.75 3.13144 315.174C3.13144 315.736 3.58969 316.195 4.15208 316.195C4.71447 316.195 5.17272 315.736 5.17272 315.174C5.17272 314.75 4.91583 314.386 4.54784 314.233C4.5409 306.903 4.53743 300.511 4.54784 293.518C4.91583 293.365 5.1762 293.001 5.1762 292.577C5.1762 292.154 4.91583 291.789 4.54784 291.636C4.54784 291.584 4.54784 291.529 4.54784 291.477C5.11718 291.303 5.54071 290.796 5.54071 290.171C5.54071 289.713 5.30465 289.327 4.96096 289.074C6.62384 288.702 7.87361 287.22 7.87361 285.445C7.87361 283.671 6.67244 282.258 5.06163 281.848C5.34977 281.595 5.53723 281.234 5.53723 280.821C5.53723 280.053 4.91583 279.435 4.15208 279.435L4.15903 279.432ZM4.15903 282.286C5.89829 282.286 7.31469 283.702 7.31469 285.442C7.31469 287.181 5.89829 288.598 4.15903 288.598C2.41978 288.598 1.00337 287.181 1.00337 285.442C1.00337 283.702 2.41978 282.286 4.15903 282.286Z" fill="url(#paint2_radial_163_2589)"/>
<path d="M4.15903 316.198C3.39529 316.198 2.77388 316.82 2.77388 317.584C2.77388 317.997 2.96481 318.358 3.24948 318.611C1.63867 319.021 0.4375 320.472 0.4375 322.209C0.4375 323.945 1.68727 325.465 3.35015 325.837C3.00646 326.09 2.7704 326.476 2.7704 326.934C2.7704 327.701 3.39181 328.32 4.15556 328.32C4.9193 328.32 5.54071 327.698 5.54071 326.934C5.54071 326.476 5.30465 326.09 4.96096 325.837C6.62384 325.465 7.87361 323.983 7.87361 322.209C7.87361 320.434 6.67244 319.021 5.06163 318.611C5.34977 318.358 5.53723 317.997 5.53723 317.584C5.53723 316.816 4.91583 316.198 4.15208 316.198H4.15903ZM4.15903 319.052C5.89829 319.052 7.31469 320.469 7.31469 322.209C7.31469 323.948 5.89829 325.365 4.15903 325.365C2.41978 325.365 1.00337 323.948 1.00337 322.209C1.00337 320.469 2.41978 319.052 4.15903 319.052Z" fill="url(#paint3_radial_163_2589)"/>
<path d="M5.17952 329.344C5.17952 329.767 4.91916 330.132 4.55117 330.285C4.54423 334.128 4.54423 339.837 4.55117 343.323C4.55117 343.541 4.37412 343.719 4.15541 343.719C3.9367 343.719 3.75964 343.541 3.75964 343.323C3.74923 339.837 3.74923 334.128 3.75964 330.285C3.39166 330.129 3.13477 329.767 3.13477 329.344C3.13477 328.781 3.59301 328.323 4.15541 328.323C4.7178 328.323 5.17605 328.781 5.17605 329.344H5.17952Z" fill="url(#paint4_radial_163_2589)"/>
<path d="M5.17995 72.016C5.17995 72.4396 4.91959 72.8042 4.5516 72.9569C4.54466 79.8943 4.54466 86.7032 4.5516 93.6718C4.91959 93.828 5.17995 94.1891 5.17995 94.6127C5.17995 95.1787 4.72171 95.6336 4.15931 95.6336C3.59692 95.6336 3.13867 95.1752 3.13867 94.6127C3.13867 94.1891 3.39556 93.8246 3.76355 93.6718C3.75661 86.6997 3.75661 79.8943 3.76355 72.9535C3.39556 72.7972 3.13867 72.4361 3.13867 72.0125C3.13867 71.45 3.59692 70.9917 4.15931 70.9917C4.72171 70.9917 5.17995 71.45 5.17995 72.0125V72.016Z" fill="url(#paint5_radial_163_2589)"/>
<path d="M7.88009 28.114C7.88009 26.3779 6.67893 24.9266 5.06813 24.5169C5.35627 24.2634 5.54721 23.9023 5.54721 23.4891C5.54721 22.8572 5.11672 22.3468 4.54044 22.1801C4.54739 22.1558 4.55434 22.1315 4.55434 22.1037V22.0239C4.92233 21.8676 5.17922 21.5065 5.17922 21.0829C5.17922 20.6593 4.92233 20.2947 4.55434 20.1419V0.39583C4.55434 0.177085 4.37729 0 4.15858 0C3.93987 0 3.76281 0.177085 3.76281 0.39583V20.1419C3.39483 20.2982 3.13794 20.6593 3.13794 21.0829C3.13794 21.5065 3.39483 21.8711 3.76281 22.0239V22.1037C3.76281 22.1315 3.77323 22.1558 3.78017 22.1801C3.20389 22.3468 2.77343 22.8606 2.77343 23.4891C2.77343 23.9023 2.96436 24.2634 3.24903 24.5169C1.63822 24.9266 0.437048 26.3779 0.437048 28.114C0.437048 29.8501 1.68682 31.3709 3.3497 31.7424C3.00601 31.9959 2.76995 32.3813 2.76995 32.8396C2.76995 33.4646 3.19347 33.975 3.75934 34.1451V34.3049C3.39135 34.4611 3.13446 34.8222 3.13446 35.2458C3.13446 35.6694 3.39135 36.034 3.75934 36.1868V56.9016C3.39135 57.0578 3.13446 57.4189 3.13446 57.8426C3.13446 58.2662 3.39135 58.6307 3.75934 58.7835V58.8634H4.1551C3.39136 58.8634 2.76995 59.4849 2.76995 60.2487C2.76995 60.6619 2.96089 61.023 3.24555 61.2765C1.63475 61.6862 0.433594 63.1376 0.433594 64.8737C0.433594 66.6097 1.68334 68.1305 3.34622 68.5021C3.00254 68.7555 2.76648 69.1409 2.76648 69.5992C2.76648 70.3666 3.38788 70.9846 4.15163 70.9846C4.91537 70.9846 5.53678 70.3631 5.53678 69.5992C5.53678 69.1409 5.30072 68.7555 4.95703 68.5021C6.61992 68.1305 7.86968 66.6479 7.86968 64.8737C7.86968 63.0994 6.66853 61.6862 5.05772 61.2765C5.34586 61.023 5.53678 60.6619 5.53678 60.2487C5.53678 59.4849 4.91537 58.8634 4.15163 58.8634H4.54739V58.7835C4.91538 58.6273 5.17227 58.2662 5.17227 57.8426C5.17227 57.4189 4.91538 57.0544 4.54739 56.9016V36.1868C4.91538 36.0305 5.17227 35.6694 5.17227 35.2458C5.17227 34.8222 4.91538 34.4576 4.54739 34.3049V34.1451C5.11673 33.9715 5.53678 33.4646 5.53678 32.8396C5.53678 32.3813 5.30072 31.9959 4.95703 31.7424C6.61992 31.3709 7.87316 29.8883 7.87316 28.114H7.88009ZM7.31424 64.8806C7.31424 66.6202 5.89783 68.0368 4.15858 68.0368C2.41932 68.0368 1.00291 66.6202 1.00291 64.8806C1.00291 63.1411 2.41932 61.7244 4.15858 61.7244C5.89783 61.7244 7.31424 63.1411 7.31424 64.8806ZM4.15858 31.2702C2.41932 31.2702 1.00291 29.8536 1.00291 28.114C1.00291 26.3745 2.41932 24.9578 4.15858 24.9578C5.89783 24.9578 7.31424 26.3745 7.31424 28.114C7.31424 29.8536 5.89783 31.2702 4.15858 31.2702Z" fill="url(#paint6_radial_163_2589)"/>
<path d="M4.15903 95.6404C3.39529 95.6404 2.77388 96.2619 2.77388 97.0258C2.77388 97.439 2.96481 97.8001 3.24948 98.0535C1.63867 98.4632 0.4375 99.9146 0.4375 101.651C0.4375 103.387 1.68727 104.908 3.35015 105.279C3.00646 105.533 2.7704 105.918 2.7704 106.376C2.7704 107.001 3.19046 107.508 3.75979 107.682V107.842C3.39181 107.998 3.13491 108.359 3.13491 108.782C3.13491 109.206 3.39181 109.567 3.75979 109.723C3.75632 116.612 3.75632 123.546 3.75979 130.442C3.39181 130.598 3.13491 130.959 3.13491 131.383C3.13491 131.949 3.59316 132.404 4.15556 132.404C4.71795 132.404 5.1762 131.945 5.1762 131.383C5.1762 130.959 4.91931 130.595 4.55132 130.442C4.54438 123.55 4.54438 116.616 4.55132 109.727C4.91931 109.574 5.17967 109.21 5.17967 108.786C5.17967 108.362 4.91931 107.998 4.55132 107.845C4.55132 107.793 4.55132 107.737 4.55132 107.685C5.12066 107.512 5.54418 107.005 5.54418 106.38C5.54418 105.921 5.30812 105.536 4.96444 105.283C6.62732 104.911 7.87709 103.428 7.87709 101.654C7.87709 99.8799 6.67591 98.4667 5.0651 98.057C5.35324 97.8035 5.54071 97.4424 5.54071 97.0292C5.54071 96.2619 4.9193 95.6439 4.15556 95.6439L4.15903 95.6404ZM4.15903 98.4945C5.89829 98.4945 7.31469 99.9111 7.31469 101.651C7.31469 103.279 6.06839 104.609 4.48188 104.776C4.41245 104.668 4.29442 104.595 4.15903 104.595C4.02017 104.595 3.90561 104.668 3.83618 104.776C2.24967 104.612 1.00337 103.283 1.00337 101.651C1.00337 99.9111 2.41978 98.4945 4.15903 98.4945Z" fill="url(#paint7_radial_163_2589)"/>
<path d="M4.15924 132.407C3.39549 132.407 2.77409 133.029 2.77409 133.792C2.77409 134.206 2.96502 134.567 3.24969 134.82C1.63888 135.23 0.437707 136.681 0.437707 138.417C0.437707 140.153 1.68748 141.674 3.35036 142.046C3.00667 142.299 2.77061 142.685 2.77061 143.143C2.77061 143.768 3.19066 144.275 3.76 144.448C3.76 144.5 3.76 144.556 3.76 144.608C3.39201 144.764 3.13512 145.125 3.13512 145.549C3.13512 145.973 3.39203 146.334 3.75655 146.49C3.7496 153.469 3.75307 159.847 3.75655 167.16C3.38856 167.316 3.13165 167.677 3.13165 168.101C3.13165 168.108 3.13512 168.118 3.13512 168.125C3.13512 168.132 3.13165 168.142 3.13165 168.149C3.13165 168.573 3.38856 168.937 3.75655 169.09V169.122C3.75655 169.149 3.76695 169.174 3.77042 169.198C3.19414 169.365 2.76366 169.878 2.76366 170.507C2.76366 170.514 2.76714 170.524 2.76714 170.531C2.76714 170.538 2.76366 170.549 2.76366 170.556C2.76366 170.948 2.93031 171.299 3.19068 171.552C1.60417 171.979 0.427303 173.413 0.427303 175.132C0.427303 175.139 0.427303 175.149 0.427303 175.156C0.427303 175.163 0.427303 175.173 0.427303 175.18C0.427303 176.937 1.65277 178.403 3.29135 178.795C2.97543 179.048 2.76019 179.423 2.76019 179.857C2.76019 179.864 2.76366 179.875 2.76366 179.882C2.76366 179.889 2.76019 179.896 2.76019 179.906C2.76019 180.531 3.18373 181.041 3.7496 181.212V181.323C3.38161 181.479 3.12472 181.84 3.12472 182.264C3.12472 182.271 3.12817 182.281 3.12817 182.288C3.12817 182.295 3.12472 182.305 3.12472 182.312C3.12472 182.736 3.38161 183.1 3.7496 183.253C3.74265 187.1 3.74265 192.805 3.7496 196.291V203.919C3.38161 204.076 3.12472 204.437 3.12472 204.86C3.12472 205.284 3.38161 205.649 3.7496 205.801V205.881H4.14536C3.38161 205.881 2.76019 206.503 2.76019 207.267C2.76019 207.68 2.95114 208.041 3.23581 208.294C1.625 208.704 0.423828 210.155 0.423828 211.891C0.423828 213.628 1.6736 215.148 3.33648 215.52C2.99279 215.773 2.75673 216.159 2.75673 216.617C2.75673 217.384 3.37814 218.002 4.14188 218.002C4.90563 218.002 5.52704 217.381 5.52704 216.617C5.52704 216.159 5.29098 215.773 4.94729 215.52C6.61017 215.148 7.85992 213.666 7.85992 211.891C7.85992 210.117 6.65876 208.704 5.04796 208.294C5.3361 208.041 5.52356 207.68 5.52356 207.267C5.52356 206.503 4.90215 205.881 4.13841 205.881H4.53417V205.801C4.90216 205.645 5.15905 205.284 5.15905 204.86C5.15905 204.437 4.90216 204.072 4.53417 203.919V183.253C4.90216 183.097 5.15905 182.736 5.15905 182.312C5.15905 182.305 5.15558 182.295 5.15558 182.288C5.15558 182.281 5.15905 182.274 5.15905 182.264C5.15905 181.84 4.90216 181.475 4.53417 181.323V181.212C5.10351 181.038 5.52356 180.531 5.52356 179.906C5.52356 179.899 5.52009 179.889 5.52009 179.882C5.52009 179.875 5.52356 179.864 5.52356 179.857C5.52356 179.42 5.30833 179.048 4.99242 178.795C6.631 178.406 7.85646 176.937 7.85646 175.18C7.85646 175.173 7.85646 175.163 7.85646 175.156C7.85646 175.149 7.85646 175.139 7.85646 175.132C7.85646 173.413 6.6796 171.976 5.09309 171.552C5.35346 171.299 5.52009 170.948 5.52009 170.556C5.52009 170.549 5.51661 170.538 5.51661 170.531C5.51661 170.524 5.52009 170.514 5.52009 170.507C5.52009 169.875 5.08962 169.365 4.51334 169.198C4.52029 169.174 4.5307 169.149 4.5307 169.122V169.09C4.89868 168.934 5.15558 168.573 5.15558 168.149C5.15558 168.142 5.1521 168.132 5.1521 168.125C5.1521 168.118 5.15558 168.111 5.15558 168.101C5.15558 167.677 4.89868 167.313 4.5307 167.16V147.414C4.5307 147.414 4.52722 147.4 4.52722 147.393C4.52722 147.091 4.52722 146.796 4.52722 146.494C4.89521 146.341 5.15558 145.976 5.15558 145.549C5.15558 145.122 4.89521 144.761 4.52722 144.608C4.52722 144.556 4.52722 144.5 4.52722 144.448C5.09656 144.275 5.52009 143.768 5.52009 143.143C5.52009 142.685 5.28403 142.299 4.94034 142.046C6.60322 141.674 7.85299 140.192 7.85299 138.417C7.85299 136.643 6.65181 135.23 5.04101 134.82C5.32915 134.567 5.51661 134.206 5.51661 133.792C5.51661 133.025 4.8952 132.407 4.13146 132.407H4.15924ZM4.15924 208.749C5.89849 208.749 7.3149 210.166 7.3149 211.905C7.3149 213.645 5.89849 215.062 4.15924 215.062C2.41998 215.062 1.00357 213.645 1.00357 211.905C1.00357 210.166 2.41998 208.749 4.15924 208.749ZM1.00705 175.163C1.02094 173.434 2.42693 172.031 4.15924 172.031C5.89155 172.031 7.30101 173.434 7.31143 175.163C7.29754 176.892 5.88808 178.295 4.15924 178.295C2.4304 178.295 1.01746 176.892 1.00705 175.163ZM4.15924 135.261C5.89849 135.261 7.3149 136.678 7.3149 138.417C7.3149 140.157 5.89849 141.573 4.15924 141.573C2.41998 141.573 1.00357 140.157 1.00357 138.417C1.00357 136.678 2.41998 135.261 4.15924 135.261Z" fill="url(#paint8_radial_163_2589)"/>
<defs>
<radialGradient id="paint0_radial_163_2589" cx="0" cy="0" r="1" gradientUnits="userSpaceOnUse" gradientTransform="translate(87.7929 303.681) rotate(180) scale(260.736 260.779)">
<stop offset="0.08" stop-color="#FE8A00"/>
<stop offset="0.59" stop-color="#C05B0A"/>
<stop offset="0.8" stop-color="#84260E"/>
<stop offset="0.9" stop-color="#6C1111"/>
<stop offset="1" stop-color="#FE8A00"/>
</radialGradient>
<radialGradient id="paint1_radial_163_2589" cx="0" cy="0" r="1" gradientUnits="userSpaceOnUse" gradientTransform="translate(87.7928 303.681) rotate(180) scale(260.733 260.776)">
<stop offset="0.08" stop-color="#FE8A00"/>
<stop offset="0.59" stop-color="#C05B0A"/>
<stop offset="0.8" stop-color="#84260E"/>
<stop offset="0.9" stop-color="#6C1111"/>
<stop offset="1" stop-color="#FE8A00"/>
</radialGradient>
<radialGradient id="paint2_radial_163_2589" cx="0" cy="0" r="1" gradientUnits="userSpaceOnUse" gradientTransform="translate(87.7927 303.681) rotate(180) scale(260.733 260.776)">
<stop offset="0.08" stop-color="#FE8A00"/>
<stop offset="0.59" stop-color="#C05B0A"/>
<stop offset="0.8" stop-color="#84260E"/>
<stop offset="0.9" stop-color="#6C1111"/>
<stop offset="1" stop-color="#FE8A00"/>
</radialGradient>
<radialGradient id="paint3_radial_163_2589" cx="0" cy="0" r="1" gradientUnits="userSpaceOnUse" gradientTransform="translate(87.7927 303.681) rotate(180) scale(260.733 260.776)">
<stop offset="0.08" stop-color="#FE8A00"/>
<stop offset="0.59" stop-color="#C05B0A"/>
<stop offset="0.8" stop-color="#84260E"/>
<stop offset="0.9" stop-color="#6C1111"/>
<stop offset="1" stop-color="#FE8A00"/>
</radialGradient>
<radialGradient id="paint4_radial_163_2589" cx="0" cy="0" r="1" gradientUnits="userSpaceOnUse" gradientTransform="translate(512.793 303.681) rotate(180) scale(260.736 260.78)">
<stop offset="0.08" stop-color="#FE8A00"/>
<stop offset="0.59" stop-color="#C05B0A"/>
<stop offset="0.8" stop-color="#84260E"/>
<stop offset="0.9" stop-color="#6C1111"/>
<stop offset="1" stop-color="#FE8A00"/>
</radialGradient>
<radialGradient id="paint5_radial_163_2589" cx="0" cy="0" r="1" gradientUnits="userSpaceOnUse" gradientTransform="translate(512.793 303.681) rotate(180) scale(260.732 260.776)">
<stop offset="0.08" stop-color="#FE8A00"/>
<stop offset="0.59" stop-color="#C05B0A"/>
<stop offset="0.8" stop-color="#84260E"/>
<stop offset="0.9" stop-color="#6C1111"/>
<stop offset="1" stop-color="#FE8A00"/>
</radialGradient>
<radialGradient id="paint6_radial_163_2589" cx="0" cy="0" r="1" gradientUnits="userSpaceOnUse" gradientTransform="translate(87.7919 303.681) rotate(180) scale(260.731 260.776)">
<stop offset="0.08" stop-color="#FE8A00"/>
<stop offset="0.59" stop-color="#C05B0A"/>
<stop offset="0.8" stop-color="#84260E"/>
<stop offset="0.9" stop-color="#6C1111"/>
<stop offset="1" stop-color="#FE8A00"/>
</radialGradient>
<radialGradient id="paint7_radial_163_2589" cx="0" cy="0" r="1" gradientUnits="userSpaceOnUse" gradientTransform="translate(87.7928 303.681) rotate(180) scale(260.733 260.776)">
<stop offset="0.08" stop-color="#FE8A00"/>
<stop offset="0.59" stop-color="#C05B0A"/>
<stop offset="0.8" stop-color="#84260E"/>
<stop offset="0.9" stop-color="#6C1111"/>
<stop offset="1" stop-color="#FE8A00"/>
</radialGradient>
<radialGradient id="paint8_radial_163_2589" cx="0" cy="0" r="1" gradientUnits="userSpaceOnUse" gradientTransform="translate(87.7927 303.681) rotate(180) scale(260.732 260.776)">
<stop offset="0.08" stop-color="#FE8A00"/>
<stop offset="0.59" stop-color="#C05B0A"/>
<stop offset="0.8" stop-color="#84260E"/>
<stop offset="0.9" stop-color="#6C1111"/>
<stop offset="1" stop-color="#FE8A00"/>
</radialGradient>
</defs>
</svg>
