<svg width="24" height="23" viewBox="0 0 24 23" fill="none" xmlns="http://www.w3.org/2000/svg">
<g clip-path="url(#clip0_356_4051)">
<path d="M20.5117 0.0273438H5.28655C3.41535 0.0273438 1.89844 1.56089 1.89844 3.45261V17.1031C1.89844 18.9949 3.41535 20.5284 5.28655 20.5284H20.5117C22.3829 20.5284 23.8998 18.9949 23.8998 17.1031V3.45261C23.8998 1.56089 22.3829 0.0273438 20.5117 0.0273438Z" fill="white"/>
<mask id="mask0_356_4051" style="mask-type:luminance" maskUnits="userSpaceOnUse" x="0" y="0" width="24" height="23">
<path d="M24 0H0V23H24V0Z" fill="white"/>
</mask>
<g mask="url(#mask0_356_4051)">
<path d="M17.2654 9.31674C17.2654 8.49252 17.2691 7.66831 17.2639 6.8441C17.2613 6.42516 16.9963 6.16147 16.6006 6.16568C16.2175 6.16937 15.9629 6.43252 15.9561 6.83674C15.9519 7.082 15.9551 7.32779 15.9551 7.57305C15.9551 8.96726 15.954 10.3609 15.9561 11.7552C15.9561 12.0836 16.1529 12.3657 16.4158 12.4325C16.8536 12.5446 17.2602 12.2288 17.2639 11.7625C17.2696 10.9473 17.2654 10.132 17.2654 9.31674ZM17.7215 10.3631C17.7017 11.6773 18.7799 12.6731 20.1319 12.5362C21.3767 12.4104 22.1836 11.4662 22.1435 10.1367C22.104 8.82305 21.1315 7.922 19.806 7.96305C18.5586 8.002 17.6814 9.01147 17.7215 10.3631ZM14.1137 8.40937C13.464 7.83621 12.746 7.80095 12.0401 8.22095C11.1894 8.72674 10.8729 9.55147 10.9812 10.5125C11.0817 11.4073 11.4633 12.1378 12.391 12.442C12.9689 12.6315 13.5035 12.5631 13.9778 12.1752C14.1001 12.0746 14.1376 12.0941 14.2256 12.2062C14.4047 12.4352 14.6843 12.502 14.9529 12.4099C15.209 12.322 15.3845 12.1015 15.386 11.8141C15.3923 10.762 15.3975 9.70989 15.3834 8.65779C15.3777 8.23726 14.9904 7.96884 14.5812 8.05305C14.3667 8.09726 14.2412 8.24937 14.1142 8.41042M8.07515 11.1809C8.16158 11.0662 8.21259 10.9967 8.26518 10.9288C8.94717 10.0541 9.63021 9.18095 10.3106 8.30516C10.509 8.04989 10.7073 7.79305 10.8318 7.49042C10.9749 7.14305 10.8198 6.81516 10.4679 6.69252C10.3086 6.63674 10.1435 6.63252 9.97954 6.632C9.05129 6.62884 8.12305 6.62884 7.19481 6.63252C7.06622 6.63252 6.93294 6.64516 6.80956 6.68042C6.54873 6.75463 6.39463 6.96884 6.39672 7.222C6.3988 7.47463 6.55758 7.68621 6.81945 7.75568C6.94335 7.78831 7.07611 7.79884 7.2047 7.79989C7.76852 7.80463 8.33233 7.79989 8.89667 7.8041C8.95758 7.8041 9.03515 7.7641 9.08461 7.8541C9.03828 7.91568 8.99194 7.97831 8.94405 8.03937C8.13971 9.07305 7.33433 10.1057 6.52999 11.1399C6.33008 11.3967 6.2296 11.6799 6.37433 11.9957C6.51854 12.3104 6.81424 12.3709 7.1162 12.3883C7.35828 12.4025 7.60192 12.3941 7.84452 12.3941C8.68583 12.3941 9.52765 12.3999 10.369 12.3904C10.8151 12.3852 11.0551 12.1094 11.0072 11.6931C10.9692 11.3641 10.7459 11.1862 10.333 11.1831C9.59793 11.1767 8.86283 11.1809 8.07463 11.1809M4.30179 20.0488C4.20964 20.0094 4.13988 19.9594 4.25129 19.8667C4.31793 19.8115 4.39394 19.7673 4.4663 19.7199C5.14622 19.2736 5.78604 18.782 6.20774 18.062C6.56019 17.4604 6.50396 17.1099 6.06457 16.6652C3.59897 14.1694 2.51142 11.1836 3.05442 7.65989C3.36105 5.66884 4.26275 3.95042 5.57155 2.45568C6.36184 1.55305 7.30466 0.82042 8.33546 0.208841C8.39637 0.173051 8.48852 0.163578 8.49997 0.0698936C8.47967 0.0193673 8.43958 0.0341041 8.40886 0.0341041C6.6565 0.0341041 4.90257 -0.000632739 3.15125 0.0451567C1.47958 0.087262 0.028647 1.39831 0.0322912 3.27989C0.043224 8.77042 0.0322912 14.2615 0.03125 19.7525C0.03125 21.4552 1.31663 22.8825 2.99871 22.9488C4.41893 23.0052 5.84383 22.9578 7.26613 22.9562C7.37025 22.9599 7.47385 22.9657 7.57797 22.9657C10.0852 22.9662 12.5925 22.9662 15.1002 22.9657C16.9744 22.9657 18.8486 22.973 20.7223 22.963C22.4845 22.9536 23.8683 21.5357 23.8699 19.7588C23.8709 18.7325 23.8709 17.7062 23.8688 16.6799C23.8688 16.6052 23.8938 16.5252 23.8475 16.4504C23.7564 16.4578 23.7194 16.5357 23.6679 16.5873C22.6475 17.6173 21.4777 18.4325 20.1611 19.0188C16.9588 20.4441 13.6982 20.5478 10.3965 19.3978C10.0946 19.2925 9.79993 19.2815 9.50266 19.3583C9.06639 19.4715 8.63377 19.6009 8.20322 19.7341C6.92513 20.1299 5.6309 20.3109 4.30179 20.0473" fill="#FDFEFE"/>
<path d="M7.26613 22.9561C5.84383 22.9576 4.41945 23.005 2.99871 22.9487C1.31663 22.8824 0.03125 21.455 0.03125 19.7524C0.0322912 14.2613 0.043224 8.77027 0.0322912 3.27974C0.028647 1.39816 1.47958 0.0871103 3.15125 0.0439524C4.90257 -0.00131078 6.65598 0.0328997 8.40886 0.0328997C8.43958 0.0328997 8.47967 0.0181629 8.49997 0.0686892C8.48904 0.162373 8.39637 0.171847 8.33546 0.207637C7.30466 0.819215 6.36184 1.55185 5.57155 2.45448C4.26275 3.94922 3.36053 5.66764 3.05442 7.65869C2.51194 11.1824 3.59897 14.1682 6.06457 16.6639C6.50396 17.1087 6.56019 17.4592 6.20774 18.0608C5.78604 18.7808 5.14622 19.2724 4.4663 19.7187C4.39342 19.7666 4.31741 19.8103 4.25129 19.8655C4.13988 19.9582 4.20964 20.0082 4.30179 20.0476C4.3273 20.0918 4.34344 20.1466 4.37936 20.1787C4.97702 20.7166 5.54396 21.2882 6.13225 21.835C6.41077 22.0945 6.68409 22.3592 6.95064 22.6303C7.05633 22.7376 7.23958 22.7708 7.26665 22.9555" fill="#0180C7"/>
</g>
<path d="M7.26173 22.9559C7.23466 22.7712 7.05141 22.738 6.94573 22.6306C6.67917 22.3596 6.40638 22.0949 6.12733 21.8354C5.53904 21.2885 4.9721 20.717 4.37445 20.1791C4.33852 20.147 4.32238 20.0922 4.29688 20.048C5.62599 20.3122 6.92022 20.1312 8.19831 19.7349C8.62937 19.6012 9.06199 19.4717 9.49774 19.3591C9.79501 19.2822 10.0892 19.2933 10.3916 19.3985C13.6933 20.5485 16.9539 20.4449 20.1561 19.0196C21.4728 18.4338 22.6431 17.6185 23.6629 16.588C23.714 16.5364 23.7509 16.4585 23.8426 16.4512C23.8894 16.5259 23.8639 16.6059 23.8639 16.6806C23.866 17.707 23.866 18.7333 23.8649 19.7596C23.8634 21.537 22.4791 22.9543 20.7174 22.9638C18.8432 22.9743 16.969 22.9664 15.0953 22.9664C12.5875 22.9664 10.0803 22.9664 7.57306 22.9664C7.46946 22.9664 7.36533 22.9601 7.26173 22.9564" fill="#0172B1"/>
<path d="M8.07341 11.1792C8.86109 11.1792 9.59618 11.1744 10.3318 11.1813C10.7446 11.185 10.968 11.3623 11.006 11.6913C11.0539 12.1076 10.8139 12.3839 10.3677 12.3887C9.52642 12.3981 8.6846 12.3923 7.8433 12.3923C7.6007 12.3923 7.35705 12.4008 7.11497 12.3866C6.81302 12.3692 6.51783 12.3087 6.3731 11.9939C6.22838 11.6781 6.32885 11.395 6.52877 11.1381C7.3331 10.1039 8.13796 9.07129 8.94282 8.0376C8.99072 7.97603 9.03705 7.91339 9.08339 7.85234C9.03393 7.76234 8.95636 7.80287 8.89545 7.80234C8.33163 7.79866 7.76781 7.80234 7.20347 7.79813C7.07488 7.79708 6.94213 7.78655 6.81822 7.75392C6.55636 7.68445 6.39757 7.47287 6.39549 7.22024C6.39341 6.9676 6.54751 6.75287 6.80833 6.67866C6.93172 6.64339 7.06499 6.63129 7.19358 6.63076C8.12182 6.62708 9.05007 6.62708 9.97831 6.63024C10.1423 6.63076 10.3079 6.63497 10.4666 6.69076C10.8186 6.81392 10.9737 7.14181 10.8305 7.48866C10.7061 7.79129 10.5072 8.04813 10.3094 8.30339C9.62898 9.17918 8.94543 10.0523 8.26395 10.9271C8.21085 10.995 8.15983 11.0644 8.07393 11.1792" fill="#0180C7"/>
<path d="M12.2741 10.3332C12.2788 10.5143 12.3381 10.7574 12.4927 10.969C12.8301 11.4285 13.5215 11.4269 13.8578 10.968C14.1498 10.5701 14.1483 9.90955 13.8562 9.51218C13.7016 9.30218 13.4954 9.19218 13.2383 9.17691C12.6677 9.14323 12.2678 9.58955 12.2741 10.3332ZM14.1144 8.40902C14.2409 8.24797 14.3669 8.09586 14.5814 8.05165C14.9906 7.96744 15.3785 8.23639 15.3837 8.65639C15.3972 9.70849 15.3925 10.7606 15.3863 11.8127C15.3847 12.1001 15.2098 12.3201 14.9537 12.4085C14.685 12.5006 14.4055 12.4338 14.2258 12.2048C14.1384 12.0927 14.1004 12.0738 13.978 12.1738C13.5043 12.5622 12.9691 12.6301 12.3912 12.4406C11.464 12.1364 11.0824 11.4059 10.9814 10.5117C10.8731 9.5506 11.1897 8.72586 12.0403 8.22007C12.7468 7.8006 13.4642 7.83586 14.1139 8.40849" fill="#0180C7"/>
<path d="M19.0284 10.2354C19.0273 10.5049 19.0898 10.756 19.2507 10.9744C19.5797 11.4218 20.2643 11.4254 20.6001 10.9839C20.9025 10.586 20.9041 9.91018 20.6048 9.50807C20.4491 9.2986 20.2419 9.19018 19.9858 9.1765C19.4235 9.1465 19.031 9.58071 19.0289 10.2349M17.7201 10.3623C17.68 9.01071 18.5572 8.00123 19.8046 7.96228C21.13 7.92123 22.1025 8.82228 22.1421 10.136C22.1822 11.466 21.3753 12.4097 20.1305 12.5354C18.7785 12.6723 17.7003 11.6765 17.7201 10.3623Z" fill="#0180C7"/>
<path d="M17.2646 9.31614C17.2646 10.1314 17.2688 10.9467 17.2631 11.7619C17.2594 12.2282 16.8528 12.544 16.415 12.4319C16.1521 12.3651 15.9558 12.083 15.9553 11.7546C15.9532 10.3604 15.9542 8.96667 15.9542 7.57246C15.9542 7.32719 15.9511 7.0814 15.9553 6.83614C15.9621 6.43193 16.2166 6.16877 16.5998 6.16509C16.9955 6.16088 17.261 6.42456 17.2631 6.84351C17.2683 7.66772 17.2646 8.49193 17.2646 9.31614Z" fill="#0180C7"/>
<path d="M12.2735 10.3336C12.2678 9.58995 12.6671 9.14363 13.2377 9.17732C13.4954 9.19258 13.701 9.30258 13.8556 9.51258C14.1477 9.90995 14.1492 10.5705 13.8572 10.9684C13.5209 11.4273 12.829 11.4289 12.4922 10.9694C12.3375 10.7578 12.2782 10.5147 12.2735 10.3336Z" fill="#FDFEFE"/>
<path d="M19.0279 10.2357C19.0305 9.5815 19.4225 9.14677 19.9848 9.17729C20.2414 9.19098 20.4481 9.29887 20.6038 9.50887C20.9026 9.91098 20.9015 10.5868 20.5991 10.9847C20.2633 11.4257 19.5787 11.4226 19.2497 10.9752C19.0888 10.7568 19.0263 10.5057 19.0274 10.2362" fill="#FDFEFE"/>
</g>
<defs>
<clipPath id="clip0_356_4051">
<rect width="24" height="23" fill="white"/>
</clipPath>
</defs>
</svg>
