<svg width="69" height="412" viewBox="0 0 69 412" fill="none" xmlns="http://www.w3.org/2000/svg">
<path d="M35.18 219.041C35.18 219.464 34.9196 219.829 34.5516 219.982C34.5447 226.919 34.5447 233.728 34.5516 240.696C34.9196 240.849 35.18 241.214 35.18 241.637C35.18 242.203 34.7217 242.658 34.1593 242.658C33.5969 242.658 33.1387 242.2 33.1387 241.637C33.1387 241.214 33.3956 240.849 33.7635 240.696C33.7566 233.724 33.7566 226.919 33.7635 219.982C33.3956 219.825 33.1387 219.464 33.1387 219.041C33.1387 218.475 33.5969 218.02 34.1593 218.02C34.7217 218.02 35.18 218.478 35.18 219.041Z" fill="url(#paint0_radial_163_2588)"/>
<path d="M34.159 242.661C33.3953 242.661 32.7739 243.283 32.7739 244.047C32.7739 244.46 32.9648 244.821 33.2495 245.075C31.6387 245.484 30.4375 246.936 30.4375 248.672C30.4375 250.408 31.6873 251.929 33.3501 252.3C33.0065 252.554 32.7704 252.939 32.7704 253.397C32.7704 254.022 33.1905 254.529 33.7598 254.703V254.863C33.3918 255.019 33.1349 255.38 33.1349 255.803C33.1349 256.227 33.3918 256.588 33.7598 256.744C33.7563 263.633 33.7563 270.567 33.7598 277.463C33.3918 277.619 33.1349 277.98 33.1349 278.404C33.1349 278.97 33.5932 279.424 34.1556 279.424C34.7179 279.424 35.1762 278.966 35.1762 278.404C35.1762 277.98 34.9193 277.615 34.5513 277.463C34.5444 270.571 34.5444 263.637 34.5513 256.748C34.9193 256.595 35.1797 256.231 35.1797 255.807C35.1797 255.383 34.9193 255.019 34.5513 254.866C34.5513 254.814 34.5513 254.758 34.5513 254.706C35.1207 254.533 35.5442 254.026 35.5442 253.401C35.5442 252.942 35.3081 252.557 34.9644 252.304C36.6273 251.932 37.8771 250.449 37.8771 248.675C37.8771 246.901 36.6759 245.488 35.0651 245.078C35.3532 244.825 35.5407 244.463 35.5407 244.05C35.5407 243.283 34.9193 242.665 34.1556 242.665L34.159 242.661ZM34.159 245.515C35.8983 245.515 37.3147 246.932 37.3147 248.672C37.3147 250.3 36.0684 251.63 34.4819 251.797C34.4125 251.689 34.2944 251.616 34.159 251.616C34.0202 251.616 33.9056 251.689 33.8362 251.797C32.2497 251.633 31.0034 250.304 31.0034 248.672C31.0034 246.932 32.4198 245.515 34.159 245.515Z" fill="url(#paint1_radial_163_2588)"/>
<path d="M34.159 279.432C33.3953 279.432 32.7739 280.053 32.7739 280.817C32.7739 281.23 32.9648 281.591 33.2495 281.845C31.6387 282.254 30.4375 283.706 30.4375 285.442C30.4375 287.178 31.6873 288.699 33.3501 289.07C33.0065 289.324 32.7704 289.709 32.7704 290.168C32.7704 290.793 33.1905 291.299 33.7598 291.473C33.7598 291.525 33.7598 291.581 33.7598 291.633C33.3918 291.789 33.1349 292.15 33.1349 292.574C33.1349 292.997 33.3918 293.358 33.7563 293.515C33.7494 300.511 33.7529 306.9 33.7563 314.233C33.3884 314.389 33.1314 314.75 33.1314 315.174C33.1314 315.736 33.5897 316.195 34.1521 316.195C34.7145 316.195 35.1727 315.736 35.1727 315.174C35.1727 314.75 34.9158 314.386 34.5478 314.233C34.5409 306.903 34.5374 300.511 34.5478 293.518C34.9158 293.365 35.1762 293.001 35.1762 292.577C35.1762 292.154 34.9158 291.789 34.5478 291.636C34.5478 291.584 34.5478 291.529 34.5478 291.477C35.1172 291.303 35.5407 290.796 35.5407 290.171C35.5407 289.713 35.3046 289.327 34.961 289.074C36.6238 288.702 37.8736 287.22 37.8736 285.445C37.8736 283.671 36.6724 282.258 35.0616 281.848C35.3498 281.595 35.5372 281.234 35.5372 280.821C35.5372 280.053 34.9158 279.435 34.1521 279.435L34.159 279.432ZM34.159 282.286C35.8983 282.286 37.3147 283.702 37.3147 285.442C37.3147 287.181 35.8983 288.598 34.159 288.598C32.4198 288.598 31.0034 287.181 31.0034 285.442C31.0034 283.702 32.4198 282.286 34.159 282.286Z" fill="url(#paint2_radial_163_2588)"/>
<path d="M34.159 316.198C33.3953 316.198 32.7739 316.82 32.7739 317.584C32.7739 317.997 32.9648 318.358 33.2495 318.611C31.6387 319.021 30.4375 320.472 30.4375 322.209C30.4375 323.945 31.6873 325.465 33.3501 325.837C33.0065 326.09 32.7704 326.476 32.7704 326.934C32.7704 327.701 33.3918 328.32 34.1556 328.32C34.9193 328.32 35.5407 327.698 35.5407 326.934C35.5407 326.476 35.3046 326.09 34.961 325.837C36.6238 325.465 37.8736 323.983 37.8736 322.209C37.8736 320.434 36.6724 319.021 35.0616 318.611C35.3498 318.358 35.5372 317.997 35.5372 317.584C35.5372 316.816 34.9158 316.198 34.1521 316.198H34.159ZM34.159 319.052C35.8983 319.052 37.3147 320.469 37.3147 322.209C37.3147 323.948 35.8983 325.365 34.159 325.365C32.4198 325.365 31.0034 323.948 31.0034 322.209C31.0034 320.469 32.4198 319.052 34.159 319.052Z" fill="url(#paint3_radial_163_2588)"/>
<path d="M35.1795 329.344C35.1795 329.767 34.9192 330.132 34.5512 330.285C34.5442 334.128 34.5442 339.837 34.5512 343.323C34.5512 343.541 34.3741 343.719 34.1554 343.719C33.9367 343.719 33.7596 343.541 33.7596 343.323C33.7492 339.837 33.7492 334.128 33.7596 330.285C33.3917 330.129 33.1348 329.767 33.1348 329.344C33.1348 328.781 33.593 328.323 34.1554 328.323C34.7178 328.323 35.176 328.781 35.176 329.344H35.1795Z" fill="url(#paint4_radial_163_2588)"/>
<path d="M35.18 72.016C35.18 72.4396 34.9196 72.8042 34.5516 72.9569C34.5447 79.8943 34.5447 86.7032 34.5516 93.6718C34.9196 93.828 35.18 94.1891 35.18 94.6127C35.18 95.1787 34.7217 95.6336 34.1593 95.6336C33.5969 95.6336 33.1387 95.1752 33.1387 94.6127C33.1387 94.1891 33.3956 93.8246 33.7635 93.6718C33.7566 86.6997 33.7566 79.8943 33.7635 72.9535C33.3956 72.7972 33.1387 72.4361 33.1387 72.0125C33.1387 71.45 33.5969 70.9917 34.1593 70.9917C34.7217 70.9917 35.18 71.45 35.18 72.0125V72.016Z" fill="url(#paint5_radial_163_2588)"/>
<path d="M37.8801 28.114C37.8801 26.3779 36.6789 24.9266 35.0681 24.5169C35.3563 24.2634 35.5472 23.9023 35.5472 23.4891C35.5472 22.8572 35.1167 22.3468 34.5404 22.1801C34.5474 22.1558 34.5543 22.1315 34.5543 22.1037V22.0239C34.9223 21.8676 35.1792 21.5065 35.1792 21.0829C35.1792 20.6593 34.9223 20.2947 34.5543 20.1419V0.39583C34.5543 0.177085 34.3773 0 34.1586 0C33.9399 0 33.7628 0.177085 33.7628 0.39583V20.1419C33.3948 20.2982 33.1379 20.6593 33.1379 21.0829C33.1379 21.5065 33.3948 21.8711 33.7628 22.0239V22.1037C33.7628 22.1315 33.7732 22.1558 33.7802 22.1801C33.2039 22.3468 32.7734 22.8606 32.7734 23.4891C32.7734 23.9023 32.9644 24.2634 33.249 24.5169C31.6382 24.9266 30.437 26.3779 30.437 28.114C30.437 29.8501 31.6868 31.3709 33.3497 31.7424C33.006 31.9959 32.77 32.3813 32.77 32.8396C32.77 33.4646 33.1935 33.975 33.7593 34.1451V34.3049C33.3914 34.4611 33.1345 34.8222 33.1345 35.2458C33.1345 35.6694 33.3914 36.034 33.7593 36.1868V56.9016C33.3914 57.0578 33.1345 57.4189 33.1345 57.8426C33.1345 58.2662 33.3914 58.6307 33.7593 58.7835V58.8634H34.1551C33.3914 58.8634 32.77 59.4849 32.77 60.2487C32.77 60.6619 32.9609 61.023 33.2456 61.2765C31.6347 61.6862 30.4336 63.1376 30.4336 64.8737C30.4336 66.6097 31.6833 68.1305 33.3462 68.5021C33.0025 68.7555 32.7665 69.1409 32.7665 69.5992C32.7665 70.3666 33.3879 70.9846 34.1516 70.9846C34.9154 70.9846 35.5368 70.3631 35.5368 69.5992C35.5368 69.1409 35.3007 68.7555 34.957 68.5021C36.6199 68.1305 37.8697 66.6479 37.8697 64.8737C37.8697 63.0994 36.6685 61.6862 35.0577 61.2765C35.3459 61.023 35.5368 60.6619 35.5368 60.2487C35.5368 59.4849 34.9154 58.8634 34.1516 58.8634H34.5474V58.7835C34.9154 58.6273 35.1723 58.2662 35.1723 57.8426C35.1723 57.4189 34.9154 57.0544 34.5474 56.9016V36.1868C34.9154 36.0305 35.1723 35.6694 35.1723 35.2458C35.1723 34.8222 34.9154 34.4576 34.5474 34.3049V34.1451C35.1167 33.9715 35.5368 33.4646 35.5368 32.8396C35.5368 32.3813 35.3007 31.9959 34.957 31.7424C36.6199 31.3709 37.8732 29.8883 37.8732 28.114H37.8801ZM37.3142 64.8806C37.3142 66.6202 35.8978 68.0368 34.1586 68.0368C32.4193 68.0368 31.0029 66.6202 31.0029 64.8806C31.0029 63.1411 32.4193 61.7244 34.1586 61.7244C35.8978 61.7244 37.3142 63.1411 37.3142 64.8806ZM34.1586 31.2702C32.4193 31.2702 31.0029 29.8536 31.0029 28.114C31.0029 26.3745 32.4193 24.9578 34.1586 24.9578C35.8978 24.9578 37.3142 26.3745 37.3142 28.114C37.3142 29.8536 35.8978 31.2702 34.1586 31.2702Z" fill="url(#paint6_radial_163_2588)"/>
<path d="M34.159 95.6404C33.3953 95.6404 32.7739 96.2619 32.7739 97.0258C32.7739 97.439 32.9648 97.8001 33.2495 98.0535C31.6387 98.4632 30.4375 99.9146 30.4375 101.651C30.4375 103.387 31.6873 104.908 33.3501 105.279C33.0065 105.533 32.7704 105.918 32.7704 106.376C32.7704 107.001 33.1905 107.508 33.7598 107.682V107.842C33.3918 107.998 33.1349 108.359 33.1349 108.782C33.1349 109.206 33.3918 109.567 33.7598 109.723C33.7563 116.612 33.7563 123.546 33.7598 130.442C33.3918 130.598 33.1349 130.959 33.1349 131.383C33.1349 131.949 33.5932 132.404 34.1556 132.404C34.7179 132.404 35.1762 131.945 35.1762 131.383C35.1762 130.959 34.9193 130.595 34.5513 130.442C34.5444 123.55 34.5444 116.616 34.5513 109.727C34.9193 109.574 35.1797 109.21 35.1797 108.786C35.1797 108.362 34.9193 107.998 34.5513 107.845C34.5513 107.793 34.5513 107.737 34.5513 107.685C35.1207 107.512 35.5442 107.005 35.5442 106.38C35.5442 105.921 35.3081 105.536 34.9644 105.283C36.6273 104.911 37.8771 103.428 37.8771 101.654C37.8771 99.8799 36.6759 98.4667 35.0651 98.057C35.3532 97.8035 35.5407 97.4424 35.5407 97.0292C35.5407 96.2619 34.9193 95.6439 34.1556 95.6439L34.159 95.6404ZM34.159 98.4945C35.8983 98.4945 37.3147 99.9111 37.3147 101.651C37.3147 103.279 36.0684 104.609 34.4819 104.776C34.4125 104.668 34.2944 104.595 34.159 104.595C34.0202 104.595 33.9056 104.668 33.8362 104.776C32.2497 104.612 31.0034 103.283 31.0034 101.651C31.0034 99.9111 32.4198 98.4945 34.159 98.4945Z" fill="url(#paint7_radial_163_2588)"/>
<path d="M34.1592 132.407C33.3955 132.407 32.7741 133.029 32.7741 133.792C32.7741 134.206 32.965 134.567 33.2497 134.82C31.6389 135.23 30.4377 136.681 30.4377 138.417C30.4377 140.153 31.6875 141.674 33.3504 142.046C33.0067 142.299 32.7706 142.685 32.7706 143.143C32.7706 143.768 33.1907 144.275 33.76 144.448C33.76 144.5 33.76 144.556 33.76 144.608C33.392 144.764 33.1351 145.125 33.1351 145.549C33.1351 145.973 33.392 146.334 33.7565 146.49C33.7496 153.469 33.7531 159.847 33.7565 167.16C33.3886 167.316 33.1316 167.677 33.1316 168.101C33.1316 168.108 33.1351 168.118 33.1351 168.125C33.1351 168.132 33.1316 168.142 33.1316 168.149C33.1316 168.573 33.3886 168.937 33.7565 169.09V169.122C33.7565 169.149 33.767 169.174 33.7704 169.198C33.1941 169.365 32.7637 169.878 32.7637 170.507C32.7637 170.514 32.7671 170.524 32.7671 170.531C32.7671 170.538 32.7637 170.549 32.7637 170.556C32.7637 170.948 32.9303 171.299 33.1907 171.552C31.6042 171.979 30.4273 173.413 30.4273 175.132C30.4273 175.139 30.4273 175.149 30.4273 175.156C30.4273 175.163 30.4273 175.173 30.4273 175.18C30.4273 176.937 31.6528 178.403 33.2913 178.795C32.9754 179.048 32.7602 179.423 32.7602 179.857C32.7602 179.864 32.7637 179.875 32.7637 179.882C32.7637 179.889 32.7602 179.896 32.7602 179.906C32.7602 180.531 33.1837 181.041 33.7496 181.212V181.323C33.3816 181.479 33.1247 181.84 33.1247 182.264C33.1247 182.271 33.1282 182.281 33.1282 182.288C33.1282 182.295 33.1247 182.305 33.1247 182.312C33.1247 182.736 33.3816 183.1 33.7496 183.253C33.7427 187.1 33.7427 192.805 33.7496 196.291V203.919C33.3816 204.076 33.1247 204.437 33.1247 204.86C33.1247 205.284 33.3816 205.649 33.7496 205.801V205.881H34.1454C33.3816 205.881 32.7602 206.503 32.7602 207.267C32.7602 207.68 32.9511 208.041 33.2358 208.294C31.625 208.704 30.4238 210.155 30.4238 211.891C30.4238 213.628 31.6736 215.148 33.3365 215.52C32.9928 215.773 32.7567 216.159 32.7567 216.617C32.7567 217.384 33.3781 218.002 34.1419 218.002C34.9056 218.002 35.527 217.381 35.527 216.617C35.527 216.159 35.291 215.773 34.9473 215.52C36.6102 215.148 37.8599 213.666 37.8599 211.891C37.8599 210.117 36.6588 208.704 35.048 208.294C35.3361 208.041 35.5236 207.68 35.5236 207.267C35.5236 206.503 34.9022 205.881 34.1384 205.881H34.5342V205.801C34.9022 205.645 35.1591 205.284 35.1591 204.86C35.1591 204.437 34.9022 204.072 34.5342 203.919V183.253C34.9022 183.097 35.1591 182.736 35.1591 182.312C35.1591 182.305 35.1556 182.295 35.1556 182.288C35.1556 182.281 35.1591 182.274 35.1591 182.264C35.1591 181.84 34.9022 181.475 34.5342 181.323V181.212C35.1035 181.038 35.5236 180.531 35.5236 179.906C35.5236 179.899 35.5201 179.889 35.5201 179.882C35.5201 179.875 35.5236 179.864 35.5236 179.857C35.5236 179.42 35.3083 179.048 34.9924 178.795C36.631 178.406 37.8565 176.937 37.8565 175.18C37.8565 175.173 37.8565 175.163 37.8565 175.156C37.8565 175.149 37.8565 175.139 37.8565 175.132C37.8565 173.413 36.6796 171.976 35.0931 171.552C35.3535 171.299 35.5201 170.948 35.5201 170.556C35.5201 170.549 35.5166 170.538 35.5166 170.531C35.5166 170.524 35.5201 170.514 35.5201 170.507C35.5201 169.875 35.0896 169.365 34.5133 169.198C34.5203 169.174 34.5307 169.149 34.5307 169.122V169.09C34.8987 168.934 35.1556 168.573 35.1556 168.149C35.1556 168.142 35.1521 168.132 35.1521 168.125C35.1521 168.118 35.1556 168.111 35.1556 168.101C35.1556 167.677 34.8987 167.313 34.5307 167.16V147.414C34.5307 147.414 34.5272 147.4 34.5272 147.393C34.5272 147.091 34.5272 146.796 34.5272 146.494C34.8952 146.341 35.1556 145.976 35.1556 145.549C35.1556 145.122 34.8952 144.761 34.5272 144.608C34.5272 144.556 34.5272 144.5 34.5272 144.448C35.0966 144.275 35.5201 143.768 35.5201 143.143C35.5201 142.685 35.284 142.299 34.9403 142.046C36.6032 141.674 37.853 140.192 37.853 138.417C37.853 136.643 36.6518 135.23 35.041 134.82C35.3291 134.567 35.5166 134.206 35.5166 133.792C35.5166 133.025 34.8952 132.407 34.1315 132.407H34.1592ZM34.1592 208.749C35.8985 208.749 37.3149 210.166 37.3149 211.905C37.3149 213.645 35.8985 215.062 34.1592 215.062C32.42 215.062 31.0036 213.645 31.0036 211.905C31.0036 210.166 32.42 208.749 34.1592 208.749ZM31.007 175.163C31.0209 173.434 32.4269 172.031 34.1592 172.031C35.8915 172.031 37.301 173.434 37.3114 175.163C37.2975 176.892 35.8881 178.295 34.1592 178.295C32.4304 178.295 31.0175 176.892 31.007 175.163ZM34.1592 135.261C35.8985 135.261 37.3149 136.678 37.3149 138.417C37.3149 140.157 35.8985 141.573 34.1592 141.573C32.42 141.573 31.0036 140.157 31.0036 138.417C31.0036 136.678 32.42 135.261 34.1592 135.261Z" fill="url(#paint8_radial_163_2588)"/>
<path d="M34.0105 379.068C41.3424 389.346 49.7019 387.082 51.042 385.898C50.9656 386.565 50.851 387.218 50.7052 387.853C50.306 389.572 49.6568 391.186 48.7924 392.655C45.852 397.658 40.4329 400.964 34.0105 400.964C27.5881 400.964 22.1689 397.658 19.2285 392.655L17.3192 387.853C17.1699 387.214 17.0588 386.561 16.9824 385.898C18.3224 387.082 26.682 389.346 34.0139 379.068H34.0105Z" fill="url(#paint9_radial_163_2588)"/>
<path d="M34.5562 353.836C18.6425 370.694 33.9625 378.829 33.9625 378.829C33.9625 378.829 49.5047 371.395 34.5562 353.836ZM33.9834 378.628C33.9834 378.628 23.1833 373.006 34.2402 361.097C44.8424 373.333 33.9834 378.628 33.9834 378.628Z" fill="url(#paint10_radial_163_2588)"/>
<path d="M34.1567 344.781C52.0041 344.781 66.5256 359.305 66.5256 377.155C66.5256 395.005 52.0041 409.529 34.1567 409.529C16.3094 409.529 1.78785 395.005 1.78785 377.155C1.78785 359.305 16.3094 344.781 34.1567 344.781ZM34.1567 342.993C15.2922 342.993 0 358.288 0 377.155C0 396.023 15.2922 411.318 34.1567 411.318C53.0212 411.318 68.3135 396.023 68.3135 377.155C68.3135 358.288 53.0212 342.993 34.1567 342.993Z" fill="url(#paint11_radial_163_2588)"/>
<defs>
<radialGradient id="paint0_radial_163_2588" cx="0" cy="0" r="1" gradientUnits="userSpaceOnUse" gradientTransform="translate(117.793 303.681) rotate(180) scale(260.736 260.779)">
<stop offset="0.08" stop-color="#FE8A00"/>
<stop offset="0.59" stop-color="#C05B0A"/>
<stop offset="0.8" stop-color="#84260E"/>
<stop offset="0.9" stop-color="#6C1111"/>
<stop offset="1" stop-color="#FE8A00"/>
</radialGradient>
<radialGradient id="paint1_radial_163_2588" cx="0" cy="0" r="1" gradientUnits="userSpaceOnUse" gradientTransform="translate(117.793 303.681) rotate(180) scale(260.733 260.776)">
<stop offset="0.08" stop-color="#FE8A00"/>
<stop offset="0.59" stop-color="#C05B0A"/>
<stop offset="0.8" stop-color="#84260E"/>
<stop offset="0.9" stop-color="#6C1111"/>
<stop offset="1" stop-color="#FE8A00"/>
</radialGradient>
<radialGradient id="paint2_radial_163_2588" cx="0" cy="0" r="1" gradientUnits="userSpaceOnUse" gradientTransform="translate(117.793 303.681) rotate(180) scale(260.733 260.776)">
<stop offset="0.08" stop-color="#FE8A00"/>
<stop offset="0.59" stop-color="#C05B0A"/>
<stop offset="0.8" stop-color="#84260E"/>
<stop offset="0.9" stop-color="#6C1111"/>
<stop offset="1" stop-color="#FE8A00"/>
</radialGradient>
<radialGradient id="paint3_radial_163_2588" cx="0" cy="0" r="1" gradientUnits="userSpaceOnUse" gradientTransform="translate(117.793 303.681) rotate(180) scale(260.733 260.776)">
<stop offset="0.08" stop-color="#FE8A00"/>
<stop offset="0.59" stop-color="#C05B0A"/>
<stop offset="0.8" stop-color="#84260E"/>
<stop offset="0.9" stop-color="#6C1111"/>
<stop offset="1" stop-color="#FE8A00"/>
</radialGradient>
<radialGradient id="paint4_radial_163_2588" cx="0" cy="0" r="1" gradientUnits="userSpaceOnUse" gradientTransform="translate(542.793 303.681) rotate(180) scale(260.736 260.78)">
<stop offset="0.08" stop-color="#FE8A00"/>
<stop offset="0.59" stop-color="#C05B0A"/>
<stop offset="0.8" stop-color="#84260E"/>
<stop offset="0.9" stop-color="#6C1111"/>
<stop offset="1" stop-color="#FE8A00"/>
</radialGradient>
<radialGradient id="paint5_radial_163_2588" cx="0" cy="0" r="1" gradientUnits="userSpaceOnUse" gradientTransform="translate(542.793 303.681) rotate(180) scale(260.732 260.776)">
<stop offset="0.08" stop-color="#FE8A00"/>
<stop offset="0.59" stop-color="#C05B0A"/>
<stop offset="0.8" stop-color="#84260E"/>
<stop offset="0.9" stop-color="#6C1111"/>
<stop offset="1" stop-color="#FE8A00"/>
</radialGradient>
<radialGradient id="paint6_radial_163_2588" cx="0" cy="0" r="1" gradientUnits="userSpaceOnUse" gradientTransform="translate(117.792 303.681) rotate(180) scale(260.731 260.776)">
<stop offset="0.08" stop-color="#FE8A00"/>
<stop offset="0.59" stop-color="#C05B0A"/>
<stop offset="0.8" stop-color="#84260E"/>
<stop offset="0.9" stop-color="#6C1111"/>
<stop offset="1" stop-color="#FE8A00"/>
</radialGradient>
<radialGradient id="paint7_radial_163_2588" cx="0" cy="0" r="1" gradientUnits="userSpaceOnUse" gradientTransform="translate(117.793 303.681) rotate(180) scale(260.733 260.776)">
<stop offset="0.08" stop-color="#FE8A00"/>
<stop offset="0.59" stop-color="#C05B0A"/>
<stop offset="0.8" stop-color="#84260E"/>
<stop offset="0.9" stop-color="#6C1111"/>
<stop offset="1" stop-color="#FE8A00"/>
</radialGradient>
<radialGradient id="paint8_radial_163_2588" cx="0" cy="0" r="1" gradientUnits="userSpaceOnUse" gradientTransform="translate(117.793 303.681) rotate(180) scale(260.732 260.776)">
<stop offset="0.08" stop-color="#FE8A00"/>
<stop offset="0.59" stop-color="#C05B0A"/>
<stop offset="0.8" stop-color="#84260E"/>
<stop offset="0.9" stop-color="#6C1111"/>
<stop offset="1" stop-color="#FE8A00"/>
</radialGradient>
<radialGradient id="paint9_radial_163_2588" cx="0" cy="0" r="1" gradientUnits="userSpaceOnUse" gradientTransform="translate(117.793 303.681) rotate(180) scale(260.732 260.776)">
<stop offset="0.08" stop-color="#FE8A00"/>
<stop offset="0.59" stop-color="#C05B0A"/>
<stop offset="0.8" stop-color="#84260E"/>
<stop offset="0.9" stop-color="#6C1111"/>
<stop offset="1" stop-color="#FE8A00"/>
</radialGradient>
<radialGradient id="paint10_radial_163_2588" cx="0" cy="0" r="1" gradientUnits="userSpaceOnUse" gradientTransform="translate(117.794 303.681) rotate(180) scale(260.732 260.776)">
<stop offset="0.08" stop-color="#FE8A00"/>
<stop offset="0.59" stop-color="#C05B0A"/>
<stop offset="0.8" stop-color="#84260E"/>
<stop offset="0.9" stop-color="#6C1111"/>
<stop offset="1" stop-color="#FE8A00"/>
</radialGradient>
<radialGradient id="paint11_radial_163_2588" cx="0" cy="0" r="1" gradientUnits="userSpaceOnUse" gradientTransform="translate(117.794 303.681) rotate(180) scale(260.732 260.776)">
<stop offset="0.08" stop-color="#FE8A00"/>
<stop offset="0.59" stop-color="#C05B0A"/>
<stop offset="0.8" stop-color="#84260E"/>
<stop offset="0.9" stop-color="#6C1111"/>
<stop offset="1" stop-color="#FE8A00"/>
</radialGradient>
</defs>
</svg>
