<svg width="156" height="149" viewBox="0 0 156 149" fill="none" xmlns="http://www.w3.org/2000/svg">
<g style="mix-blend-mode:hard-light" clip-path="url(#clip0_141_2338)">
<path opacity="0.8" d="M140.959 133.616C136.845 126.962 110.197 121.825 77.9418 121.825C45.6862 121.825 19.0387 126.962 14.9251 133.616L14.373 133.63V135.416C14.373 142.919 42.8383 149.007 77.9418 149.007C113.045 149.007 141.511 142.919 141.511 135.416V133.63L140.959 133.616Z" fill="url(#paint0_linear_141_2338)"/>
<path d="M108.717 72.2214C108.892 71.9989 109.094 71.8034 109.336 71.6416C112.77 69.4035 117.907 81.8954 118.533 83.9044C123.32 99.1738 117.395 115.569 103.634 122.526C100.719 124.003 97.5273 125.034 94.1341 125.378C90.1081 125.789 85.3481 125.216 81.5981 123.025C73.2699 118.171 76.8719 109.394 80.5613 103.927C88.2768 92.4997 101.399 85.7987 107.983 73.4281C108.205 73.0101 108.427 72.5854 108.717 72.2147V72.2214Z" fill="url(#paint1_linear_141_2338)"/>
<path d="M44.5888 71.9585C44.4138 71.736 44.2118 71.5405 43.9694 71.3787C40.5358 69.1405 35.3989 81.6325 34.7728 83.6414C29.9859 98.9109 35.9106 115.306 49.6719 122.263C52.5871 123.74 55.7783 124.771 59.1715 125.115C63.1976 125.526 67.9575 124.953 71.7076 122.762C80.0357 117.908 76.4338 109.131 72.7444 103.664C65.0289 92.2368 51.9071 85.5358 45.3227 73.1652C45.1005 72.7472 44.8783 72.3225 44.5888 71.9517V71.9585Z" fill="url(#paint2_linear_141_2338)"/>
<path d="M99.9378 48.4577V117.875C99.9378 120.227 90.1554 122.135 78.0705 122.135C65.9855 122.135 56.2031 120.221 56.2031 117.875V48.4577C56.2031 46.0914 65.9855 44.1836 78.0705 44.1836C90.1554 44.1836 99.9378 46.0914 99.9378 48.4577Z" fill="url(#paint3_linear_141_2338)"/>
<path d="M99.9378 48.4577C99.9378 50.8105 90.1554 52.7183 78.0705 52.7183C65.9855 52.7183 56.2031 50.8105 56.2031 48.4577C56.2031 46.1049 65.9855 44.1836 78.0705 44.1836C90.1554 44.1836 99.9378 46.0914 99.9378 48.4577Z" fill="url(#paint4_linear_141_2338)"/>
<path opacity="0.8" d="M77.9418 146.425C113.05 146.425 141.511 140.696 141.511 133.63C141.511 126.563 113.05 120.834 77.9418 120.834C42.8338 120.834 14.373 126.563 14.373 133.63C14.373 140.696 42.8338 146.425 77.9418 146.425Z" fill="url(#paint5_linear_141_2338)"/>
<path d="M150.856 83.8031C151.098 83.6076 151.361 83.4458 151.644 83.3177C155.65 81.5717 156.101 94.3063 155.993 96.3288C155.151 111.713 143.861 126.854 128.524 131.89C125.272 132.955 121.919 133.562 118.607 133.474C114.682 133.373 110.42 132.227 107.66 129.645C101.533 123.915 107.983 115.859 113.362 111.018C124.599 100.906 139.249 96.0456 149.745 84.875C150.095 84.4975 150.459 84.1132 150.856 83.7896V83.8031Z" fill="url(#paint6_linear_141_2338)"/>
<path d="M130.719 78.2619C130.981 78.0259 131.271 77.8237 131.594 77.6754C136.165 75.5653 138.407 90.9358 138.548 93.3762C139.592 111.942 128.079 130.218 110.353 136.306C106.596 137.594 102.657 138.328 98.6716 138.227C93.952 138.106 88.6872 136.731 85.0314 133.616C76.9187 126.706 83.5772 116.985 89.3806 111.14C101.506 98.9312 118.425 93.0594 129.527 79.5765C129.897 79.1248 130.281 78.6529 130.719 78.2686V78.2619Z" fill="url(#paint7_linear_141_2338)"/>
<g opacity="0.2">
<path d="M130.334 82.2866C130.556 82.0506 130.792 81.8281 131.034 81.6394C134.521 78.9158 133.303 89.2168 132.966 90.9156C130.361 103.805 119.259 119.857 106.103 128.924C103.316 130.845 100.502 132.423 97.8089 133.414C94.6176 134.594 91.2783 135.025 89.346 133.798C85.0574 131.068 91.3254 122.385 96.321 116.688C106.756 104.783 119.326 96.0796 129.29 83.5405C129.627 83.1225 129.964 82.6843 130.334 82.2933V82.2866Z" fill="#F9DA7F"/>
</g>
<path d="M5.15053 83.8031C4.90816 83.6076 4.64559 83.4458 4.36282 83.3177C0.356951 81.5784 -0.0941301 94.3131 0.0135908 96.3355C0.85516 111.72 12.1457 126.861 27.4824 131.897C30.7342 132.962 34.087 133.569 37.3995 133.481C41.3245 133.38 45.5862 132.234 48.3466 129.652C54.4732 123.922 48.0234 115.866 42.6441 111.025C31.4075 100.913 16.7575 96.0524 6.2614 84.8818C5.91131 84.5042 5.54775 84.12 5.15053 83.7964V83.8031Z" fill="url(#paint8_linear_141_2338)"/>
<path d="M25.2802 78.2619C25.0177 78.0259 24.7282 77.8237 24.405 77.6754C19.8336 75.5653 17.5917 90.9358 17.4503 93.3762C16.4067 111.942 27.9194 130.218 45.6462 136.306C49.403 137.594 53.3415 138.328 57.3272 138.227C62.0467 138.106 67.3116 136.731 70.9673 133.616C79.0801 126.706 72.4216 116.985 66.6181 111.14C54.4928 98.9312 37.5739 93.0594 26.4719 79.5765C26.1016 79.1248 25.7178 78.6529 25.2802 78.2686V78.2619Z" fill="url(#paint9_linear_141_2338)"/>
<g opacity="0.2">
<path d="M25.6631 82.2866C25.4409 82.0506 25.2053 81.8281 24.9629 81.6394C21.4754 78.9158 22.6873 89.2168 23.0307 90.9156C25.6362 103.805 36.7381 119.857 49.8935 128.924C52.6808 130.845 55.495 132.423 58.1881 133.414C61.3793 134.594 64.7186 135.025 66.6509 133.798C70.9395 131.068 64.6715 122.385 59.6759 116.688C49.2405 104.783 36.6708 96.0796 26.7066 83.5405C26.37 83.1225 26.0334 82.6843 25.6631 82.2933V82.2866Z" fill="#F9DA7F"/>
</g>
<path d="M79.8423 62.2777C78.9065 61.1991 77.2301 61.1991 76.2943 62.2777C71.1304 68.2507 56.541 87.1807 57.5239 109.401C58.4463 130.319 71.9248 137.978 78.0717 137.978C84.2185 137.978 97.6971 130.319 98.6194 109.401C99.6024 87.1807 85.0062 68.2439 79.8491 62.2777H79.8423Z" fill="url(#paint10_linear_141_2338)"/>
<path opacity="0.2" d="M79.0938 62.2777C78.5552 61.1991 77.5857 61.1991 77.0471 62.2777C74.0646 68.2507 65.6354 87.1807 66.201 109.401C66.7328 130.319 74.5224 137.978 78.0705 137.978C81.6185 137.978 89.4081 130.319 89.9399 109.401C90.5055 87.1807 82.0763 68.2439 79.0938 62.2777Z" fill="#F9DA7F"/>
<path d="M78.1108 33.5793H78.03C77.4946 33.5793 77.0605 34.014 77.0605 34.5501V48.0937C77.0605 48.6299 77.4946 49.0645 78.03 49.0645H78.1108C78.6463 49.0645 79.0803 48.6299 79.0803 48.0937V34.5501C79.0803 34.014 78.6463 33.5793 78.1108 33.5793Z" fill="url(#paint11_linear_141_2338)"/>
<path opacity="0.8" d="M87.0781 24.9165C79.9079 8.3392 77.6997 0 77.6997 0C77.6997 0 75.5789 8.3392 68.577 24.9165C66.9747 29.9052 66.8198 35.568 70.1727 39.3904C74.0843 43.833 79.9281 44.278 84.2841 40.6848C88.7141 37.0376 89.0238 30.7681 87.0781 24.9165Z" fill="url(#paint12_radial_141_2338)"/>
<path opacity="0.8" d="M83.275 32.4063C79.0604 22.6649 77.761 17.7571 77.761 17.7571C77.761 17.7571 76.5155 22.6581 72.4019 32.4063C71.4594 35.3388 71.3651 38.6691 73.3445 40.914C75.6403 43.5297 79.0806 43.7859 81.639 41.6758C84.2445 39.532 84.4263 35.8444 83.2817 32.4063H83.275Z" fill="url(#paint13_radial_141_2338)"/>
</g>
<defs>
<linearGradient id="paint0_linear_141_2338" x1="77.9418" y1="154.022" x2="77.9418" y2="132.746" gradientUnits="userSpaceOnUse">
<stop stop-color="#581C05"/>
<stop offset="1" stop-color="#BD9313"/>
</linearGradient>
<linearGradient id="paint1_linear_141_2338" x1="81.3119" y1="115.713" x2="101.52" y2="79.9999" gradientUnits="userSpaceOnUse">
<stop stop-color="#993108"/>
<stop offset="1" stop-color="#F3BC17"/>
</linearGradient>
<linearGradient id="paint2_linear_141_2338" x1="49.6918" y1="112.21" x2="29.4888" y2="76.5038" gradientUnits="userSpaceOnUse">
<stop offset="0.15" stop-color="#993108"/>
<stop offset="1" stop-color="#F3BC17"/>
</linearGradient>
<linearGradient id="paint3_linear_141_2338" x1="78.0705" y1="45.842" x2="78.0705" y2="90.484" gradientUnits="userSpaceOnUse">
<stop stop-color="#F9DA7F"/>
<stop offset="1" stop-color="#CB8F78"/>
</linearGradient>
<linearGradient id="paint4_linear_141_2338" x1="56.2031" y1="48.4509" x2="99.9378" y2="48.4509" gradientUnits="userSpaceOnUse">
<stop stop-color="#F9DA7F"/>
<stop offset="1" stop-color="#CB8F78"/>
</linearGradient>
<linearGradient id="paint5_linear_141_2338" x1="77.9418" y1="151.157" x2="77.9418" y2="131.115" gradientUnits="userSpaceOnUse">
<stop stop-color="#782607"/>
<stop offset="1" stop-color="#BD9313"/>
</linearGradient>
<linearGradient id="paint6_linear_141_2338" x1="137.546" y1="122.888" x2="161.587" y2="90.7361" gradientUnits="userSpaceOnUse">
<stop stop-color="#993108"/>
<stop offset="1" stop-color="#F3BC17"/>
</linearGradient>
<linearGradient id="paint7_linear_141_2338" x1="103.304" y1="124.609" x2="132.134" y2="86.0039" gradientUnits="userSpaceOnUse">
<stop stop-color="#993108"/>
<stop offset="1" stop-color="#F3BC17"/>
</linearGradient>
<linearGradient id="paint8_linear_141_2338" x1="17.8795" y1="122.91" x2="-6.16113" y2="90.7517" gradientUnits="userSpaceOnUse">
<stop stop-color="#993108"/>
<stop offset="1" stop-color="#F3BC17"/>
</linearGradient>
<linearGradient id="paint9_linear_141_2338" x1="52.7019" y1="124.609" x2="23.8645" y2="86.004" gradientUnits="userSpaceOnUse">
<stop stop-color="#993108"/>
<stop offset="1" stop-color="#F3BC17"/>
</linearGradient>
<linearGradient id="paint10_linear_141_2338" x1="78.0717" y1="135.982" x2="78.0717" y2="53.5677" gradientUnits="userSpaceOnUse">
<stop stop-color="#993108"/>
<stop offset="1" stop-color="#F3BC17"/>
</linearGradient>
<linearGradient id="paint11_linear_141_2338" x1="78.0704" y1="34.9816" x2="78.0704" y2="44.75" gradientUnits="userSpaceOnUse">
<stop stop-color="#782607"/>
<stop offset="1" stop-color="#713200"/>
</linearGradient>
<radialGradient id="paint12_radial_141_2338" cx="0" cy="0" r="1" gradientUnits="userSpaceOnUse" gradientTransform="translate(77.7045 26.5075) scale(15.1177 17.3997)">
<stop stop-color="#F3BC17"/>
<stop offset="1" stop-color="#993108"/>
</radialGradient>
<radialGradient id="paint13_radial_141_2338" cx="0" cy="0" r="1" gradientUnits="userSpaceOnUse" gradientTransform="translate(77.5354 33.3366) scale(8.88556 10.2268)">
<stop stop-color="#F3BC17"/>
<stop offset="1" stop-color="#993108"/>
</radialGradient>
<clipPath id="clip0_141_2338">
<rect width="156" height="149" fill="white"/>
</clipPath>
</defs>
</svg>
