<svg width="122" height="220" viewBox="0 0 122 220" fill="none" xmlns="http://www.w3.org/2000/svg">
<path d="M91.4935 131.018H92.5923V129.575H91.2057V121.107H92.7028V120.161H86.755V108.525H95.6563V107.286H86.755H90.9237C97.0953 107.286 103.148 105.581 108.412 102.361L113.34 99.3471V96.1908C113.34 96.1908 93.9296 104.359 87.1649 87.2367H88.1068V85.9975H87.1213V78.9255H88.3451V77.9801H81.0426V69.6515H87.9701V68.6857H81.0426H84.2869C89.0893 68.6857 93.7988 67.3592 97.8977 64.8545L101.732 62.5098V60.0516C101.732 60.0516 86.6242 66.4108 81.3595 53.0844H82.0921V52.1186C78.6182 52.1186 75.5076 49.9601 74.2896 46.702L68.9958 32.5378H70.9465V29.9633H67.3737C65.9115 29.9633 64.7254 28.7764 64.7254 27.3131V23.8921C64.7254 22.4288 65.9115 21.2419 67.3737 21.2419V18.4027H62.4404V13.0908C63.4085 13.0559 64.1847 12.2588 64.1847 11.2814C64.1847 10.3039 63.4114 9.50683 62.4404 9.47192L61.5567 0.506222C61.4898 -0.159951 60.516 -0.159951 60.4549 0.506222L59.6061 9.46901C58.609 9.47483 57.8037 10.2835 57.8037 11.2814C57.8037 12.2792 58.609 13.0879 59.6061 13.0937V18.4027H54.6147V21.2419H55.0682C56.5304 21.2419 57.7165 22.4288 57.7165 23.8921V27.3131C57.7165 28.7764 56.5304 29.9633 55.0682 29.9633H51.0448V32.5378H53.3937L48.1 46.702C46.8819 49.9601 43.7743 52.1186 40.2975 52.1186H39.9021V53.0844H40.6347C35.3729 66.4108 20.2621 60.0516 20.2621 60.0516V62.5098L24.0965 64.8545C28.1954 67.3621 32.9049 68.6857 37.7073 68.6857H40.9516H34.0241V69.6515H40.9516V77.9801H34.0444V78.9255H34.8409V85.9975H33.8874V87.2367H34.8293C28.0675 104.359 8.65428 96.1908 8.65428 96.1908V99.3471L13.5817 102.361C18.8464 105.581 24.8988 107.286 31.0705 107.286H35.2392H26.3378V108.525H35.2392V120.161H29.6897V121.107H30.6897V129.575H29.4019V131.018H30.5007C22.6226 150.974 0 141.453 0 141.453V145.133L5.74142 148.644C11.8782 152.397 18.9307 154.383 26.1256 154.383H20.608V155.826H23.0761V211.014H22.1313V213.751H20.7679V220H32.0037V213.751H30.6403V211.014H29.6955V170.54H34.6026V172.597H38.8352V211.017H37.8904V213.754H36.527V220.003H47.7628V213.754H46.3994V211.017H45.4546V172.597H76.5512V211.017H75.6065V213.754H74.243V220.003H85.4788V213.754H84.1154V211.017H83.1706V172.597H87.4033V170.54H92.3103V211.014H91.3656V213.751H90.0022V220H101.238V213.751H99.8745V211.014H98.9297V155.826H101.398V154.383H95.8802C103.072 154.383 110.125 152.397 116.264 148.644L122.006 145.133V141.453C122.006 141.453 99.3832 150.974 91.4993 131.018H91.4935ZM72.7139 69.6515H77.5455V77.9801H72.7139V69.6515ZM52.7803 69.6515H69.2168V77.9801H52.7803V69.6515ZM44.4516 69.6515H49.2832V77.9801H44.4516V69.6515ZM35.7916 78.9255H40.9545V81.2208H40.4545V82.6695H39.7335V85.9742H45.6726V82.6695H44.9517V81.2208H44.4516V78.9255H49.2832V81.2208H48.7831V82.6695H48.0622V85.9742H54.0013V82.6695H53.2803V81.2208H52.7803V78.9255H69.2168V81.2208H68.7168V82.6695H67.9958V85.9742H73.9349V82.6695H73.214V81.2208H72.7139V78.9255H77.5455V81.2208H77.0454V82.6695H76.3245V85.9742H82.2636V82.6695H81.5426V81.2208H81.0426V78.9255H86.1765V85.9975H35.7916V78.9255ZM82.2607 108.522V120.158H76.0541V108.522H82.2607ZM71.5569 108.522V120.158H50.4402V108.522H71.5569ZM45.943 108.522V120.158H39.7364V108.522H45.943ZM29.6926 155.829H32.4281V157.77H29.6926V155.829ZM34.5997 169.595H29.6926V163.445H34.5997V169.595ZM38.8323 160.574H34.5997V162.5H29.6926V159.212H38.8323V160.574ZM33.3729 157.77V155.829H35.5793V157.77H33.3729ZM38.8323 157.77H36.5241V155.829H38.8323V157.77ZM76.5454 160.574H45.4488V159.212H76.5454V160.574ZM45.4488 157.77V155.829H47.2366V157.77H45.4488ZM48.1843 157.77V155.829H50.3907V157.77H48.1843ZM51.3355 157.77V155.829H53.542V157.77H51.3355ZM54.4868 157.77V155.829H56.6932V157.77H54.4868ZM57.638 157.77V155.829H59.8445V157.77H57.638ZM60.7892 157.77V155.829H62.9957V157.77H60.7892ZM63.9405 157.77V155.829H66.1469V157.77H63.9405ZM67.0917 157.77V155.829H69.2982V157.77H67.0917ZM70.243 157.77V155.829H72.4494V157.77H70.243ZM73.3942 157.77V155.829H75.6006V157.77H73.3942ZM31.6374 129.578V121.11H35.2421V123.39H34.5997V125.249H33.6752V129.494H41.3062V125.249H40.3789V123.39H39.7364V121.11H45.943V123.39H45.3005V125.249H44.3731V129.494H52.0041V125.249H51.0768V123.39H50.4343V121.11H71.5511V123.39H70.9087V125.249H69.9842V129.494H77.6152V125.249H76.6879V123.39H76.0454V121.11H82.252V123.39H81.6095V125.249H80.6851V129.494H88.3161V125.249H87.3887V123.39H86.7463V121.11H90.2493V129.578H31.6403H31.6374ZM88.5225 155.832V157.772H86.316V155.832H88.5225ZM85.3712 155.832V157.772H83.1619V155.832H85.3712ZM92.3016 169.598H87.3945V163.448H92.3016V169.598ZM92.3016 162.503H87.3945V160.577H83.1619V159.215H92.3016V162.503ZM92.3016 157.772H89.4673V155.832H92.3016V157.772Z" fill="#F3BC17"/>
</svg>
