<svg width="96" height="220" viewBox="0 0 96 220" fill="none" xmlns="http://www.w3.org/2000/svg">
<g clip-path="url(#clip0_149_2702)">
<path d="M71.4495 30.4546V29.0743C71.4495 25.9744 68.7485 23.4656 65.4192 23.4656H49.6828V19.8553C51.1416 19.2542 52.1599 17.9007 52.1599 16.3222C52.1599 14.7438 51.1416 13.3903 49.6828 12.7891V9.56504C49.6828 8.70192 48.9317 8 48.0001 8C47.0685 8 46.3174 8.69856 46.3174 9.56504V12.7891C44.8586 13.3903 43.8403 14.7438 43.8403 16.3222C43.8403 17.9007 44.8586 19.2542 46.3174 19.8553V23.4656H30.581C27.2518 23.4656 24.5508 25.9778 24.5508 29.0743V30.4546H71.4495Z" fill="#F3BC17"/>
<path d="M21.3945 91.2424V106.805C21.3945 107.669 22.1456 108.371 23.0772 108.371C24.0088 108.371 24.7599 107.672 24.7599 106.805V98.2918H25.2149V106.805C25.2149 107.669 25.9696 108.371 26.8976 108.371C27.8256 108.371 28.5803 107.672 28.5803 106.805V98.2918H29.0352V106.805C29.0352 107.669 29.7863 108.371 30.7179 108.371C31.6496 108.371 32.4006 107.672 32.4006 106.805V98.2918H32.8556V106.805C32.8556 107.669 33.6067 108.371 34.5383 108.371C35.4699 108.371 36.221 107.672 36.221 106.805V98.2918H36.676V106.805C36.676 107.669 37.4306 108.371 38.3587 108.371C39.2867 108.371 40.0413 107.672 40.0413 106.805V98.2918H40.4963V106.805C40.4963 107.669 41.251 108.371 42.179 108.371C43.107 108.371 43.8617 107.672 43.8617 106.805V98.2918H44.3167V106.805C44.3167 107.669 45.0677 108.371 45.9994 108.371C46.1113 108.371 46.2196 108.36 46.328 108.34V114.57C44.8294 115.155 43.775 116.532 43.775 118.137C43.775 119.742 44.8294 121.119 46.328 121.704V124.995C44.8294 125.579 43.775 126.956 43.775 128.561C43.775 130.167 44.8294 131.544 46.328 132.128V138.083L43.8364 135.765C42.6954 134.704 41.1788 134.12 39.5683 134.12C37.9578 134.12 36.4412 134.704 35.3002 135.765C34.1591 136.827 33.5308 138.234 33.5308 139.735C33.5308 139.775 33.5381 139.816 33.5381 139.856C31.9493 139.826 30.3496 140.366 29.14 141.492C26.7856 143.681 26.7856 147.241 29.14 149.431L33.2456 153.249L29.14 157.068C27.9989 158.129 27.3706 159.536 27.3706 161.038C27.3706 162.539 27.9989 163.946 29.14 165.007C30.281 166.069 31.794 166.653 33.4081 166.653C33.4514 166.653 33.4947 166.646 33.5345 166.646C33.5345 166.687 33.5272 166.727 33.5272 166.764C33.5272 168.265 34.1555 169.672 35.2966 170.733C36.4376 171.795 37.9542 172.379 39.5647 172.379C41.1752 172.379 42.6918 171.795 43.8328 170.733L46.2593 168.477V170.985C42.7387 171.728 40.0991 174.66 40.0991 178.156V218.716C40.0991 219.579 40.8502 220.281 41.7818 220.281C42.7134 220.281 43.4645 219.582 43.4645 218.716V185.511H44.2517V218.716C44.2517 219.579 45.0027 220.281 45.9344 220.281C46.866 220.281 47.6171 219.582 47.6171 218.716V185.511H48.4042V218.716C48.4042 219.579 49.1553 220.281 50.0869 220.281C51.0185 220.281 51.7696 219.582 51.7696 218.716V185.511H52.5568V218.716C52.5568 219.579 53.3079 220.281 54.2395 220.281C55.1711 220.281 55.9222 219.582 55.9222 218.716V178.156C55.9222 174.612 53.2176 171.65 49.6283 170.955V168.48L52.0549 170.737C53.1959 171.798 54.7125 172.382 56.323 172.382C57.9335 172.382 59.4501 171.798 60.5911 170.737C61.7322 169.676 62.3605 168.268 62.3605 166.767C62.3605 166.727 62.3532 166.687 62.3532 166.65C62.3966 166.65 62.4399 166.656 62.4796 166.656C64.0937 166.656 65.6067 166.072 66.7477 165.011C67.8888 163.949 68.5171 162.542 68.5171 161.041C68.5171 159.54 67.8888 158.133 66.7477 157.071L62.6421 153.253L66.7477 149.434C67.8888 148.373 68.5171 146.966 68.5171 145.465C68.5171 143.963 67.8888 142.556 66.7477 141.495C65.5381 140.37 63.9384 139.829 62.3532 139.859C62.3532 139.819 62.3605 139.779 62.3605 139.738C62.3605 138.237 61.7322 136.83 60.5911 135.769C59.4501 134.707 57.9371 134.123 56.323 134.123C54.7089 134.123 53.1959 134.707 52.0549 135.769L49.6969 137.962V132.064C51.1124 131.446 52.0946 130.113 52.0946 128.565C52.0946 127.017 51.1124 125.683 49.6969 125.065V121.636C51.1124 121.018 52.0946 119.685 52.0946 118.137C52.0946 116.589 51.1124 115.255 49.6969 114.637V108.36C49.7403 108.36 49.7836 108.374 49.8269 108.374C50.7549 108.374 51.5096 107.675 51.5096 106.809V98.2952H51.9646V106.809C51.9646 107.672 52.7157 108.374 53.6473 108.374C54.5789 108.374 55.33 107.675 55.33 106.809V98.2952H55.785V106.809C55.785 107.672 56.536 108.374 57.4677 108.374C58.3993 108.374 59.1503 107.675 59.1503 106.809V98.2952H59.6053V106.809C59.6053 107.672 60.3564 108.374 61.288 108.374C62.2196 108.374 62.9707 107.675 62.9707 106.809V98.2952H63.4257V106.809C63.4257 107.672 64.1768 108.374 65.1084 108.374C66.04 108.374 66.7911 107.675 66.7911 106.809V98.2952H67.246V106.809C67.246 107.672 67.9971 108.374 68.9287 108.374C69.8603 108.374 70.6114 107.675 70.6114 106.809V98.2952H71.0664V106.809C71.0664 107.672 71.8211 108.374 72.7491 108.374C73.6771 108.374 74.4318 107.675 74.4318 106.809V91.2458H21.3945V91.2424ZM37.669 137.979C38.1889 137.495 38.875 137.253 39.5575 137.253C40.2399 137.253 40.926 137.495 41.446 137.979L45.5516 141.797L41.771 145.313L37.6653 141.495C37.1598 141.025 36.8818 140.4 36.8818 139.738C36.8818 139.077 37.1598 138.449 37.6653 137.982L37.669 137.979ZM45.5552 153.253L41.7746 156.769L37.9939 153.253L41.7746 149.736L45.5552 153.253ZM31.5087 147.221C30.4652 146.25 30.4688 144.675 31.5087 143.705C32.0287 143.221 32.7148 142.979 33.3972 142.979C34.0797 142.979 34.7658 143.221 35.2858 143.705L39.395 147.523L35.6143 151.04L31.5087 147.221ZM33.3972 163.526C32.6823 163.526 32.0143 163.268 31.5087 162.797C30.4652 161.827 30.4652 160.252 31.5087 159.281L35.6143 155.463L39.395 158.979L35.2894 162.797C34.7838 163.268 34.1122 163.526 33.4009 163.526H33.3972ZM41.446 168.527C40.406 169.498 38.7089 169.498 37.6653 168.527C36.6218 167.556 36.6218 165.981 37.6653 165.011L41.771 161.192L45.5516 164.708L41.446 168.527ZM52.546 182.391H43.4537V181.638H52.546V182.391ZM52.546 178.162V178.508H43.4537V178.162C43.4537 175.832 45.4938 173.934 47.9998 173.934C50.5058 173.934 52.546 175.832 52.546 178.162ZM47.9312 162.499L44.1506 158.982L47.9312 155.466L51.7118 158.982L47.9312 162.499ZM50.3108 153.256L54.0914 149.74L57.8721 153.256L54.0914 156.772L50.3108 153.256ZM58.1971 168.53C57.1535 169.501 55.46 169.501 54.4164 168.53L50.3108 164.712L54.0914 161.196L58.1971 165.014C59.2406 165.985 59.2406 167.56 58.1971 168.53ZM64.3537 159.288C64.8592 159.758 65.1373 160.383 65.1373 161.044C65.1373 161.706 64.8592 162.334 64.3537 162.801C63.3101 163.771 61.6166 163.771 60.573 162.801L56.4674 158.982L60.2481 155.466L64.3573 159.285L64.3537 159.288ZM62.4652 142.983C63.1476 142.983 63.8337 143.224 64.3537 143.708C64.8592 144.178 65.1373 144.803 65.1373 145.468C65.1373 146.133 64.8592 146.758 64.3537 147.224L60.2481 151.043L56.4674 147.527L60.573 143.708C61.093 143.224 61.7791 142.983 62.4652 142.983ZM54.4164 137.982C54.9364 137.498 55.6225 137.257 56.3049 137.257C56.9874 137.257 57.6735 137.498 58.1935 137.982C58.699 138.452 58.977 139.077 58.977 139.738C58.977 140.4 58.699 141.028 58.1935 141.495L54.0878 145.313L50.3072 141.797L54.4128 137.979L54.4164 137.982ZM51.7118 147.53L47.9312 151.046L44.1506 147.53L47.9312 144.014L51.7118 147.53Z" fill="#F3BC17"/>
<path d="M80.4618 83.8539H15.541V88.2199H80.4618V83.8539Z" fill="#F3BC17"/>
<path d="M46.3746 41.3638H25.4999C24.5033 43.4346 23.4922 46.0415 22.7231 49.1809C20.9393 56.4829 20.2027 68.038 25.6226 83.4774H46.371V41.3638H46.3746Z" fill="#F3BC17"/>
<path d="M49.6247 83.4774H70.1745C75.5981 68.0415 74.8578 56.4829 73.074 49.1809C72.3085 46.0415 71.2939 43.4346 70.2972 41.3638H49.6211V83.4774H49.6247Z" fill="#F3BC17"/>
<path d="M84.4416 41.3638H73.8615C74.7065 43.3024 75.5262 45.5925 76.187 48.2412C78.0827 55.8286 78.9241 67.7283 73.6016 83.4774H84.0227C91.4792 77.8181 96.0037 70.3943 96.0037 62.2605C96.0037 54.1266 91.649 46.9812 84.4416 41.3638Z" fill="#F3BC17"/>
<path d="M19.6181 48.2412C20.2789 45.5925 21.0986 43.3024 21.9436 41.3638H11.5622C4.35477 46.9812 0 54.2798 0 62.2605C0 70.2412 4.52449 77.8216 11.981 83.4774H22.2036C16.8775 67.7283 17.7224 55.8286 19.6181 48.2412Z" fill="#F3BC17"/>
<path d="M19.0869 34.375H15.541V38.2314H80.4618V34.4028H19.3722C19.2747 34.4028 19.1808 34.3924 19.0869 34.375Z" fill="#F3BC17"/>
</g>
<defs>
<clipPath id="clip0_149_2702">
<rect width="96" height="220" fill="white"/>
</clipPath>
</defs>
</svg>
