<svg width="20" height="21" viewBox="0 0 20 21" fill="none" xmlns="http://www.w3.org/2000/svg">
<circle cx="10" cy="10.0295" r="9.75" fill="white" stroke="white" stroke-width="0.5"/>
<path d="M17 10.0295C17 6.16357 13.866 3.02954 10 3.02954C6.13403 3.02954 3 6.16357 3 10.0295C3 13.5234 5.55981 16.4194 8.90625 16.9445V12.053H7.12891V10.0295H8.90625V8.48735C8.90625 6.73298 9.95133 5.76392 11.5503 5.76392C12.3161 5.76392 13.1172 5.90063 13.1172 5.90063V7.62329H12.2345C11.3649 7.62329 11.0938 8.16289 11.0938 8.71649V10.0295H13.0352L12.7248 12.053H11.0938V16.9445C14.4402 16.4194 17 13.5235 17 10.0295Z" fill="#1877F2"/>
<path d="M12.7248 12.053L13.0352 10.0295H11.0938V8.71649C11.0938 8.16284 11.3649 7.62329 12.2345 7.62329H13.1172V5.90063C13.1172 5.90063 12.3161 5.76392 11.5502 5.76392C9.95133 5.76392 8.90625 6.73298 8.90625 8.48735V10.0295H7.12891V12.053H8.90625V16.9445C9.26807 17.0012 9.63376 17.0296 10 17.0295C10.3662 17.0296 10.7319 17.0012 11.0938 16.9445V12.053H12.7248Z" fill="white"/>
</svg>
