<svg width="20" height="21" viewBox="0 0 20 21" fill="none" xmlns="http://www.w3.org/2000/svg">
<circle cx="10" cy="10.5295" r="9.75" fill="white" stroke="white" stroke-width="0.5"/>
<path d="M13.7188 3.52954H6.28125C4.46907 3.52954 3 4.99861 3 6.81079V14.2483C3 16.0605 4.46907 17.5295 6.28125 17.5295H13.7188C15.5309 17.5295 17 16.0605 17 14.2483V6.81079C17 4.99861 15.5309 3.52954 13.7188 3.52954Z" fill="url(#paint0_radial_834_15352)"/>
<path d="M13.7188 3.52954H6.28125C4.46907 3.52954 3 4.99861 3 6.81079V14.2483C3 16.0605 4.46907 17.5295 6.28125 17.5295H13.7188C15.5309 17.5295 17 16.0605 17 14.2483V6.81079C17 4.99861 15.5309 3.52954 13.7188 3.52954Z" fill="url(#paint1_radial_834_15352)"/>
<path d="M10.0005 5.06079C8.51529 5.06079 8.32886 5.0673 7.74556 5.09382C7.16336 5.12051 6.76595 5.21266 6.41824 5.3479C6.05851 5.48757 5.75341 5.67444 5.44945 5.9785C5.14523 6.28251 4.95836 6.58761 4.81825 6.94718C4.68263 7.29499 4.59037 7.69257 4.56417 8.2745C4.53809 8.85785 4.53125 9.04434 4.53125 10.5296C4.53125 12.0149 4.53781 12.2007 4.56428 12.784C4.59108 13.3662 4.68323 13.7636 4.81836 14.1113C4.95814 14.471 5.14501 14.7761 5.44907 15.0801C5.75297 15.3843 6.05807 15.5716 6.41753 15.7113C6.76551 15.8465 7.16298 15.9387 7.74507 15.9654C8.32842 15.9919 8.51469 15.9984 9.99984 15.9984C11.4852 15.9984 11.671 15.9919 12.2543 15.9654C12.8365 15.9387 13.2344 15.8465 13.5824 15.7113C13.9419 15.5716 14.2466 15.3843 14.5504 15.0801C14.8547 14.7761 15.0415 14.471 15.1816 14.1115C15.3161 13.7636 15.4084 13.3661 15.4357 12.7841C15.4619 12.2008 15.4688 12.0149 15.4688 10.5296C15.4688 9.04434 15.4619 8.85796 15.4357 8.27461C15.4084 7.69241 15.3161 7.29505 15.1816 6.94735C15.0415 6.58761 14.8547 6.28251 14.5504 5.9785C14.2463 5.67433 13.942 5.48746 13.582 5.34796C13.2334 5.21266 12.8358 5.12046 12.2536 5.09382C11.6702 5.0673 11.4845 5.06079 9.9988 5.06079H10.0005ZM9.50989 6.04631C9.65552 6.0461 9.818 6.04631 10.0005 6.04631C11.4607 6.04631 11.6337 6.05156 12.2104 6.07776C12.7436 6.10215 13.033 6.19124 13.2257 6.2661C13.481 6.3652 13.6629 6.48371 13.8542 6.67517C14.0456 6.86657 14.1641 7.04885 14.2634 7.30407C14.3383 7.49657 14.4275 7.78598 14.4518 8.31918C14.478 8.8957 14.4837 9.06884 14.4837 10.5283C14.4837 11.9878 14.478 12.161 14.4518 12.7375C14.4274 13.2707 14.3383 13.5601 14.2634 13.7527C14.1643 14.0079 14.0456 14.1896 13.8542 14.3809C13.6628 14.5723 13.4811 14.6908 13.2257 14.7899C13.0332 14.8651 12.7436 14.954 12.2104 14.9784C11.6338 15.0046 11.4607 15.0103 10.0005 15.0103C8.54023 15.0103 8.36714 15.0046 7.79068 14.9784C7.25748 14.9538 6.96807 14.8647 6.77513 14.7898C6.51996 14.6907 6.33763 14.5722 6.14623 14.3808C5.95482 14.1894 5.83637 14.0076 5.737 13.7522C5.66213 13.5597 5.57294 13.2703 5.54866 12.7371C5.52246 12.1605 5.51721 11.9874 5.51721 10.527C5.51721 9.06654 5.52246 8.89433 5.54866 8.31781C5.57305 7.78461 5.66213 7.4952 5.737 7.30243C5.83615 7.0472 5.95482 6.86493 6.14628 6.67353C6.33774 6.48212 6.51996 6.36361 6.77519 6.2643C6.96796 6.1891 7.25748 6.10024 7.79068 6.07574C8.29517 6.05293 8.49068 6.0461 9.50989 6.04495V6.04631ZM12.9197 6.95435C12.5574 6.95435 12.2635 7.24802 12.2635 7.61038C12.2635 7.97268 12.5574 8.26663 12.9197 8.26663C13.282 8.26663 13.576 7.97268 13.576 7.61038C13.576 7.24807 13.282 6.95413 12.9197 6.95413V6.95435ZM10.0005 7.72112C8.44955 7.72112 7.19207 8.9786 7.19207 10.5296C7.19207 12.0806 8.44955 13.3375 10.0005 13.3375C11.5515 13.3375 12.8085 12.0806 12.8085 10.5296C12.8085 8.97866 11.5514 7.72112 10.0004 7.72112H10.0005ZM10.0005 8.70664C11.0072 8.70664 11.8234 9.52274 11.8234 10.5296C11.8234 11.5363 11.0072 12.3525 10.0005 12.3525C8.99375 12.3525 8.17759 11.5363 8.17759 10.5296C8.17759 9.52274 8.9937 8.70664 10.0005 8.70664Z" fill="white"/>
<defs>
<radialGradient id="paint0_radial_834_15352" cx="0" cy="0" r="1" gradientUnits="userSpaceOnUse" gradientTransform="translate(6.71875 18.6078) rotate(-90) scale(13.875 12.9049)">
<stop stop-color="#FFDD55"/>
<stop offset="0.1" stop-color="#FFDD55"/>
<stop offset="0.5" stop-color="#FF543E"/>
<stop offset="1" stop-color="#C837AB"/>
</radialGradient>
<radialGradient id="paint1_radial_834_15352" cx="0" cy="0" r="1" gradientUnits="userSpaceOnUse" gradientTransform="translate(0.654945 4.53803) rotate(78.681) scale(6.20222 25.5657)">
<stop stop-color="#3771C8"/>
<stop offset="0.128" stop-color="#3771C8"/>
<stop offset="1" stop-color="#6600FF" stop-opacity="0"/>
</radialGradient>
</defs>
</svg>
