<svg width="20" height="21" viewBox="0 0 20 21" fill="none" xmlns="http://www.w3.org/2000/svg">
<circle cx="10" cy="10.5295" r="9.75" fill="white" stroke="white" stroke-width="0.5"/>
<path d="M13.1819 8.58303C14.0859 9.22889 15.1933 9.60891 16.3893 9.60891V7.30859C16.163 7.30868 15.9372 7.28506 15.7157 7.23812V9.04881C14.5198 9.04881 13.4125 8.66884 12.5084 8.02303V12.7174C12.5084 15.0657 10.6036 16.9693 8.25425 16.9693C7.37764 16.9693 6.56282 16.7044 5.88599 16.2501C6.6585 17.0396 7.73582 17.5293 8.92765 17.5293C11.2772 17.5293 13.182 15.6258 13.182 13.2773V8.58303H13.1819ZM14.0129 6.26229C13.5509 5.75785 13.2475 5.10594 13.1819 4.38521V4.08936H12.5436C12.7043 5.00537 13.2524 5.78795 14.0129 6.26229ZM7.37197 14.4481C7.11384 14.1099 6.97432 13.6961 6.97497 13.2706C6.97497 12.1966 7.84617 11.3257 8.92102 11.3257C9.1213 11.3256 9.3204 11.3563 9.51132 11.4168V9.06507C9.28821 9.03453 9.06307 9.02151 8.83802 9.0263V10.8568C8.647 10.7963 8.4478 10.7655 8.24743 10.7657C7.17263 10.7657 6.30148 11.6365 6.30148 12.7106C6.30148 13.4702 6.73691 14.1278 7.37197 14.4481Z" fill="#FF004F"/>
<path d="M12.5084 8.02298C13.4126 8.66879 14.5198 9.04876 15.7158 9.04876V7.23808C15.0482 7.09593 14.4572 6.74728 14.0129 6.26229C13.2523 5.7879 12.7043 5.00532 12.5436 4.08936H10.867V13.2772C10.8632 14.3483 9.9935 15.2156 8.92097 15.2156C8.289 15.2156 7.72749 14.9145 7.37192 14.448C6.73695 14.1278 6.30147 13.4701 6.30147 12.7107C6.30147 11.6366 7.17262 10.7657 8.24743 10.7657C8.45336 10.7657 8.65183 10.7978 8.83802 10.8568V9.02635C6.52986 9.07402 4.67358 10.959 4.67358 13.2773C4.67358 14.4345 5.13583 15.4836 5.88608 16.2502C6.56291 16.7044 7.37768 16.9694 8.25435 16.9694C10.6038 16.9694 12.5085 15.0657 12.5085 12.7174L12.5084 8.02298Z" fill="#0F1816"/>
<path d="M15.7157 7.23822V6.74873C15.1137 6.7496 14.5236 6.5811 14.0128 6.26248C14.465 6.7572 15.0603 7.09836 15.7157 7.23831M12.5436 4.0895C12.5282 4.00197 12.5165 3.91387 12.5083 3.82539V3.52954H10.1933V12.7175C10.1896 13.7885 9.31991 14.6558 8.24734 14.6558C7.94327 14.6563 7.64336 14.5852 7.37183 14.4483C7.72741 14.9147 8.28891 15.2158 8.92088 15.2158C9.99336 15.2158 10.8632 14.3486 10.8669 13.2775V4.08954L12.5436 4.0895ZM8.83807 9.02649V8.5053C8.64462 8.47889 8.4496 8.46567 8.25435 8.46571C5.90467 8.46571 4 10.3694 4 12.7175C4 14.1897 4.74856 15.4871 5.88609 16.2503C5.13583 15.4838 4.67359 14.4346 4.67359 13.2774C4.67359 10.9592 6.52982 9.07416 8.83807 9.02649Z" fill="#00F2EA"/>
</svg>
