<svg width="20" height="21" viewBox="0 0 20 21" fill="none" xmlns="http://www.w3.org/2000/svg">
<circle cx="10" cy="10.5295" r="9.75" fill="white" stroke="white" stroke-width="0.5"/>
<path d="M10.4028 5.52954C10.7366 5.53142 11.5716 5.53954 12.4592 5.57517L12.7742 5.58892C13.6674 5.6308 14.5599 5.7033 15.003 5.82643C15.5937 5.99269 16.0575 6.47648 16.2144 7.09026C16.4644 8.06532 16.4956 9.96669 16.4994 10.4273L16.5 10.5224V10.6311C16.4956 11.0918 16.4644 12.9938 16.2144 13.9682C16.0556 14.5839 15.5912 15.0683 15.003 15.232C14.5599 15.3552 13.6674 15.4277 12.7742 15.4695L12.4592 15.4839C11.5716 15.5189 10.7366 15.5277 10.4028 15.5289L10.2559 15.5295H10.0966C9.39027 15.5252 6.43637 15.4933 5.49632 15.232C4.9063 15.0658 4.4419 14.582 4.28501 13.9682C4.035 12.9931 4.00375 11.0918 4 10.6311V10.4273C4.00375 9.96669 4.035 8.0647 4.28501 7.09026C4.44377 6.4746 4.90817 5.99019 5.49695 5.82706C6.43637 5.56517 9.39089 5.53329 10.0972 5.52954H10.4028ZM8.99962 8.34222V12.7175L12.7498 10.5299L8.99962 8.34222Z" fill="#FF004F"/>
</svg>
